<svg width="50" height="50" viewBox="0 0 50 50" fill="none" xmlns="http://www.w3.org/2000/svg">
<path d="M17.3854 9.22282C17.531 9.22282 17.6491 9.50231 17.6491 9.84705V38.2902C17.6491 38.635 17.531 38.9144 17.3854 38.9144C17.2398 38.9144 17.1217 38.635 17.1217 38.2902V9.84705C17.1217 9.50226 17.2398 9.22282 17.3854 9.22282ZM17.5484 19.4791V19.5032C17.5484 19.6425 17.4357 19.7555 17.2967 19.7555H5.8299C5.69093 19.7555 5.57823 19.6425 5.57823 19.5032V19.4791C5.57823 19.3398 5.69093 19.2269 5.8299 19.2269H17.2967C17.4357 19.2269 17.5484 19.3398 17.5484 19.4791ZM17.3166 28.9905V29.0146C17.3166 29.1539 17.2039 29.2669 17.0649 29.2669H5.5981C5.45914 29.2669 5.34644 29.1539 5.34644 29.0146V28.9905C5.34644 28.8512 5.45914 28.7382 5.5981 28.7382H17.0649C17.2039 28.7382 17.3166 28.8512 17.3166 28.9905ZM7.75455 37.6793C7.77395 37.534 7.78893 37.3872 7.81433 37.2434C8.01012 36.1872 8.56014 35.3617 9.43299 34.74C10.0368 35.3138 10.7482 35.6164 11.5792 35.6149C12.4072 35.6149 13.1171 35.3153 13.727 34.737C13.848 34.8329 13.9751 34.9242 14.0916 35.0276C14.827 35.6823 15.2604 36.4988 15.3784 37.48C15.3859 37.546 15.3963 37.6134 15.4053 37.6793C15.4053 37.7587 15.4053 37.8396 15.4053 37.919C12.8541 37.919 10.3043 37.919 7.75305 37.919C7.75455 37.8396 7.75455 37.7587 7.75455 37.6793V37.6793ZM11.7601 30.2486C11.911 30.2786 12.065 30.2981 12.2114 30.34C13.1082 30.5902 13.7718 31.3857 13.8645 32.316C13.993 33.6059 13.0484 34.7385 11.7556 34.8449C10.5914 34.9422 9.51968 34.1108 9.32243 32.9557C9.11021 31.7213 9.87992 30.5707 11.101 30.2996C11.1996 30.2771 11.3013 30.2651 11.4014 30.2486C11.521 30.2486 11.6405 30.2486 11.7601 30.2486H11.7601ZM20.8584 36.5966C20.9097 36.2122 20.9493 35.8238 21.0165 35.4434C21.5344 32.6496 22.9894 30.466 25.2982 28.8214C26.8954 30.3392 28.7773 31.1397 30.9755 31.1358C33.1658 31.1358 35.0437 30.3432 36.6568 28.8135C36.977 29.0672 37.3131 29.3089 37.6215 29.5823C39.5666 31.3141 40.7131 33.4739 41.0255 36.0696C41.0452 36.2439 41.0729 36.4223 41.0967 36.5966C41.0967 36.8067 41.0967 37.0207 41.0967 37.2307C34.3479 37.2307 27.6032 37.2307 20.8545 37.2307C20.8584 37.0206 20.8584 36.8066 20.8584 36.5966H20.8584ZM31.4539 16.9406C31.8532 17.0199 32.2604 17.0714 32.6479 17.1824C35.02 17.8442 36.7753 19.9485 37.0204 22.4094C37.3605 25.8215 34.8618 28.8174 31.442 29.0988C28.3622 29.3564 25.5274 27.157 25.0056 24.1017C24.4442 20.8362 26.4803 17.7927 29.7103 17.0754C29.9713 17.016 30.2401 16.9843 30.505 16.9407C30.8212 16.9407 31.1375 16.9407 31.4538 16.9407L31.4539 16.9406ZM7.73957 28.4913C7.75897 28.346 7.77395 28.1992 7.79935 28.0554C7.99514 26.9992 8.54516 26.1737 9.41801 25.552C10.0218 26.1258 10.7332 26.4284 11.5642 26.4269C12.3922 26.4269 13.1022 26.1273 13.712 25.549C13.833 25.6449 13.9601 25.7363 14.0766 25.8396C14.812 26.4943 15.2454 27.3108 15.3635 28.2921C15.3709 28.358 15.3814 28.4254 15.3904 28.4913C15.3904 28.5707 15.3904 28.6517 15.3904 28.731C12.8391 28.731 10.2894 28.731 7.73807 28.731C7.73957 28.6516 7.73957 28.5707 7.73957 28.4913V28.4913ZM11.7451 21.0607C11.896 21.0907 12.05 21.1101 12.1964 21.1521C13.0932 21.4023 13.7568 22.1977 13.8495 23.1281C13.978 24.418 13.0334 25.5505 11.7406 25.6569C10.5764 25.7543 9.5047 24.9228 9.30745 23.7678C9.09523 22.5333 9.86495 21.3828 11.086 21.1116C11.1846 21.0891 11.2863 21.0772 11.3864 21.0607C11.506 21.0607 11.6256 21.0607 11.7451 21.0607H11.7451ZM7.75455 19.0121C7.77395 18.8668 7.78893 18.72 7.81433 18.5762C8.01012 17.52 8.56014 16.6945 9.43299 16.0728C10.0368 16.6466 10.7482 16.9492 11.5792 16.9477C12.4072 16.9477 13.1171 16.6481 13.727 16.0698C13.848 16.1657 13.9751 16.257 14.0916 16.3604C14.827 17.0151 15.2604 17.8316 15.3784 18.8128C15.3859 18.8788 15.3963 18.9462 15.4053 19.0121C15.4053 19.0915 15.4053 19.1724 15.4053 19.2518C12.8541 19.2518 10.3043 19.2518 7.75305 19.2518C7.75455 19.1724 7.75455 19.0915 7.75455 19.0121V19.0121ZM11.7601 11.5814C11.911 11.6114 12.065 11.6308 12.2114 11.6728C13.1082 11.9229 13.7718 12.7184 13.8645 13.6488C13.993 14.9387 13.0484 16.0712 11.7556 16.1776C10.5914 16.275 9.51968 15.4435 9.32243 14.2885C9.11021 13.054 9.87992 11.9035 11.101 11.6323C11.1996 11.6098 11.3013 11.5979 11.4014 11.5814C11.521 11.5814 11.6405 11.5814 11.7601 11.5814H11.7601ZM47 11.4481V36.4424C47 38.4651 45.348 40.121 43.3357 40.121H30.868C30.868 42.0714 32.3315 43.7273 32.3315 44.5275C32.3315 45.3332 31.6662 46 30.868 46H19.132C18.3282 46 17.663 45.3332 17.663 44.5275C17.663 43.6773 19.132 42.1158 19.132 40.1154L6.66433 40.121C4.64642 40.121 3 38.465 3 36.4424V11.4481C3 9.42539 4.64646 7.77508 6.66433 7.77508H43.3357C45.348 7.77508 47 9.42543 47 11.4481ZM44.0674 36.059V11.6537C44.0674 11.1536 43.7237 10.7146 43.3356 10.7146H6.66429C6.27623 10.7146 5.93251 11.1536 5.93251 11.6537V36.059C5.93251 36.5591 6.27623 36.9981 6.66429 36.9981H43.3356C43.7237 36.9981 44.0674 36.5591 44.0674 36.059ZM24.9962 7.02402C26.1048 7.02402 27.0035 6.1233 27.0035 5.01201C27.0035 3.90072 26.1049 3 24.9962 3C23.8877 3 22.989 3.90072 22.989 5.01201C22.989 6.1233 23.8876 7.02402 24.9962 7.02402ZM25.0055 3.45969C25.0904 3.45969 25.1599 3.52934 25.1599 3.61447C25.1599 3.69961 25.0904 3.76925 25.0055 3.76925C24.9206 3.76925 24.8511 3.69961 24.8511 3.61447C24.8511 3.52934 24.9206 3.45969 25.0055 3.45969ZM24.9962 4.08342C25.5073 4.08342 25.9226 4.4997 25.9226 5.01201C25.9226 5.52432 25.5073 5.9406 24.9962 5.9406C24.4851 5.9406 24.0698 5.52432 24.0698 5.01201C24.0698 4.4997 24.4851 4.08342 24.9962 4.08342ZM24.9962 5.47635C25.251 5.47635 25.4595 5.26741 25.4595 5.01201C25.4595 4.75661 25.251 4.54767 24.9962 4.54767C24.7414 4.54767 24.533 4.75661 24.533 5.01201C24.533 5.26741 24.7414 5.47635 24.9962 5.47635ZM26.3349 6.90482C25.9566 7.17566 25.4934 7.33354 24.9962 7.33354C24.4991 7.33354 24.0359 7.17566 23.6576 6.90482L23.2917 7.48057C23.1604 7.68642 23.3086 7.95571 23.5511 7.95571H26.4415C26.6839 7.95571 26.8321 7.68642 26.7009 7.48057L26.3349 6.90482Z" fill="#4A4A4A"/>
</svg>