<svg width="50" height="50" viewBox="0 0 50 50" fill="none" xmlns="http://www.w3.org/2000/svg">
<path d="M31.2101 34.34H19.6401V33.34H31.2101V34.34ZM26.4401 31.26H19.6401V30.26H26.4401V31.26ZM28.4401 28.18H19.6401V27.18H28.4801L28.4401 28.18ZM31.8601 25.18H19.6401V24.18H31.9001L31.8601 25.18ZM26.4001 22.11H19.6001V21H26.4001V22.11ZM34.8901 15.45H16.5601V40H34.9301L34.8901 15.45ZM13.5301 43V12.39H38.0001V43H13.5301ZM9.3101 18C8.22793 18.9621 7.49624 20.2566 7.2301 21.68L14.8201 29.62C15.3316 28.8608 15.5777 27.9537 15.5201 27.04C16.1201 26.7996 16.6636 26.4373 17.1163 25.976C17.569 25.5147 17.921 24.9644 18.1501 24.36C18.9903 24.4614 19.8383 24.2476 20.5301 23.76L12.9301 15.82C11.5277 16.1564 10.2634 16.9178 9.3101 18V18ZM1.1701 14.88C1.70097 15.4962 2.19835 16.1404 2.6601 16.81C2.81509 15.3831 3.4832 14.0611 4.5401 13.09C5.49922 11.9924 6.82511 11.2815 8.2701 11.09C7.6201 10.6 6.7801 9.85 6.4801 9.6C5.6901 8.81 4.1501 8.26 1.9101 10.15C-0.3299 12.04 0.3201 14 1.1701 14.88ZM16.6101 28.08C16.4931 28.8422 16.2569 29.5812 15.9101 30.27L24.6501 34L21.1301 25C21.1301 25 20.7801 25.35 19.2901 25.35C19.0565 25.9716 18.6983 26.5389 18.2374 27.017C17.7765 27.495 17.2227 27.8738 16.6101 28.13V28.08ZM5.4901 14.08C3.3501 16.32 3.6501 17.85 3.6501 17.85L4.4901 18.7C4.76438 17.3406 5.46498 16.104 6.4901 15.17C7.44199 14.0655 8.70281 13.2714 10.1101 12.89L9.2101 12C9.2101 12 7.5701 12 5.4901 14.08V14.08ZM7.2701 16C5.2701 18.13 5.5401 19.62 5.5401 19.62L6.2801 20.42C6.59089 19.1197 7.2635 17.934 8.2201 17C9.1289 15.9382 10.3391 15.1779 11.6901 14.82L10.8501 14C10.8501 14 9.2601 13.93 7.2701 16ZM37.1101 10L29.5201 17.9C30.1891 18.3955 31.025 18.6107 31.8501 18.5C32.0756 19.1144 32.4321 19.6724 32.8949 20.1352C33.3577 20.598 33.9157 20.9545 34.5301 21.18C34.4442 22.0963 34.6928 23.0128 35.2301 23.76L42.8201 15.82C42.5217 14.4 41.775 13.1135 40.6901 12.15C39.7677 11.0568 38.5086 10.3006 37.1101 10V10ZM48.1101 4.29C45.8501 2.41 44.3101 3 43.5201 3.75C43.2701 4.05 42.3801 4.75 41.7801 5.29C43.2062 5.45377 44.5192 6.14593 45.4601 7.23C46.0071 7.70294 46.4549 8.27965 46.7776 8.92675C47.1003 9.57386 47.2915 10.2785 47.3401 11C47.8901 10.31 48.6801 9.22 48.8301 9.07C49.6801 8.17 50.3201 6.24 48.0901 4.35L48.1101 4.29ZM30.7101 19.44C29.2201 19.44 28.8701 19.1 28.8701 19.1L25.4001 28.1L34.0901 24.38C33.7428 23.6953 33.5226 22.9533 33.4401 22.19C32.8182 21.9395 32.2547 21.5633 31.785 21.0849C31.3152 20.6066 30.9493 20.0363 30.7101 19.41V19.44ZM40.7901 6.14L39.9401 7C41.3281 7.40481 42.5706 8.19963 43.5201 9.29C44.5189 10.2407 45.2147 11.4653 45.5201 12.81L46.3101 11.97C46.3101 11.97 46.6101 10.43 44.4701 8.24C42.3301 6.05 40.7901 6.14 40.7901 6.14ZM39.1501 8.14L38.3101 9C39.6583 9.36425 40.8668 10.1235 41.7801 11.18C42.7567 12.0821 43.4338 13.2617 43.7201 14.56L44.5101 13.76C44.5101 13.76 44.7601 12.27 42.7301 10.19C40.7001 8.11 39.1501 8.12 39.1501 8.12V8.14Z" fill="#4A4A4A"/>
</svg>