<svg width="50" height="50" viewBox="0 0 50 50" fill="none" xmlns="http://www.w3.org/2000/svg">
<path d="M36.8701 19.39V15.54H13.9401V19.39H36.8701ZM29.2601 30.85V27H13.9401V30.85H29.2601ZM13.9401 21.27V25.12H36.8701V21.27H13.9401ZM40.7201 7.92001C41.7157 7.92527 42.669 8.3231 43.373 9.0271C44.077 9.7311 44.4748 10.6844 44.4801 11.68V34.61C44.4804 35.6157 44.0871 36.5816 43.3844 37.301C42.6818 38.0205 41.7255 38.4365 40.7201 38.46H13.9401L6.33008 46.08V11.68C6.33792 10.6852 6.73658 9.7334 7.44003 9.02996C8.14347 8.32652 9.09529 7.92786 10.0901 7.92001H40.7201Z" fill="#4A4A4A"/>
</svg>