<svg width="60" height="60" viewBox="0 0 60 60" fill="none" xmlns="http://www.w3.org/2000/svg">
<path d="M0 8C0 3.58172 3.58172 0 8 0H52C56.4183 0 60 3.58172 60 8V52C60 56.4183 56.4183 60 52 60H8C3.58172 60 0 56.4183 0 52V8Z" fill="#ECBE30"/>
<path fill-rule="evenodd" clip-rule="evenodd" d="M30.0001 22.6667C31.0126 22.6667 31.8334 23.4875 31.8334 24.5V33.6667C31.8334 34.6792 31.0126 35.5 30.0001 35.5C28.9876 35.5 28.1667 34.6792 28.1667 33.6667V24.5C28.1667 23.4875 28.9876 22.6667 30.0001 22.6667Z" fill="white"/>
<path fill-rule="evenodd" clip-rule="evenodd" d="M28.1667 40.0833C28.1667 39.0708 28.9876 38.25 30.0001 38.25H30.0184C31.0309 38.25 31.8517 39.0708 31.8517 40.0833C31.8517 41.0959 31.0309 41.9167 30.0184 41.9167H30.0001C28.9876 41.9167 28.1667 41.0959 28.1667 40.0833Z" fill="white"/>
<path fill-rule="evenodd" clip-rule="evenodd" d="M26.7873 11.8704C28.1804 9.33753 31.8198 9.33752 33.2129 11.8704L50.2789 42.8995C51.6229 45.3431 49.855 48.3332 47.0661 48.3332H12.9341C10.1452 48.3332 8.37729 45.3431 9.7213 42.8995L26.7873 11.8704ZM47.0661 44.6665L30.0001 13.6374L12.9341 44.6665H47.0661Z" fill="white"/>
</svg>
