<svg width="50" height="50" viewBox="0 0 50 50" fill="none" xmlns="http://www.w3.org/2000/svg">
<path d="M45.6001 20.46V37.89C45.5845 39.3544 44.9958 40.7545 43.9602 41.7901C42.9246 42.8257 41.5245 43.4144 40.0601 43.43H9.94009C9.20547 43.4452 8.47573 43.3073 7.79737 43.0249C7.11901 42.7426 6.50691 42.322 6.00009 41.79C5.47309 41.2878 5.05542 40.6821 4.77323 40.0111C4.49103 39.34 4.35039 38.6179 4.36009 37.89V14.11C4.35039 13.3821 4.49103 12.66 4.77323 11.9889C5.05542 11.3178 5.47309 10.7122 6.00009 10.21C6.50232 9.68299 7.10793 9.26532 7.779 8.98313C8.45007 8.70093 9.17216 8.56029 9.90009 8.56999H17.8401C18.568 8.56029 19.2901 8.70093 19.9612 8.98313C20.6322 9.26532 21.2379 9.68299 21.7401 10.21C22.2684 10.7117 22.6876 11.317 22.9715 11.988C23.2554 12.6591 23.3979 13.3814 23.3901 14.11V14.91H40.0601C41.5263 14.9256 42.9278 15.5157 43.9637 16.5534C44.9995 17.5912 45.5871 18.9938 45.6001 20.46Z" fill="#4A4A4A"/>
</svg>