<svg width="50" height="50" viewBox="0 0 50 50" fill="none" xmlns="http://www.w3.org/2000/svg">
<path d="M16.18 3.3C15.39 3.62 15.25 4.13 15.25 7.8C15.25 11 15.3 11.46 15.67 11.8C15.9481 12.0461 16.2995 12.1937 16.67 12.22C18.02 12.17 18.25 11.47 18.25 7.58C18.25 4.42 18.25 4.28 17.69 3.72C17.5297 3.47579 17.2852 3.29906 17.0031 3.22346C16.7209 3.14785 16.4209 3.17865 16.16 3.31L16.18 3.3ZM32.43 3.57C31.87 3.99 31.87 4.18 31.78 7.19C31.68 10.63 31.78 11.28 32.33 11.84C32.62 12.0808 32.9875 12.2083 33.3643 12.1992C33.7412 12.19 34.102 12.0446 34.38 11.79C34.7 11.42 34.75 10.79 34.75 7.79C34.75 3.94 34.65 3.57 33.59 3.29C33.3853 3.24236 33.1719 3.24668 32.9693 3.30257C32.7667 3.35846 32.5813 3.46415 32.43 3.61V3.57ZM8.05996 8.31C7.37161 8.71313 6.78356 9.267 6.33996 9.93C5.73996 10.93 5.64996 11.33 5.54996 13.37L5.45996 15.69H44.54L44.45 13.41C44.35 10.68 43.84 9.52 42.36 8.54C41.48 7.94 41.2 7.89 38.55 7.84L35.67 7.75V9.61C35.67 11.28 35.67 11.61 35.07 12.16C34.7589 12.596 34.2957 12.8995 33.7717 13.0106C33.2477 13.1217 32.7012 13.0323 32.24 12.76C31.31 12.21 31 11.51 31 9.52V7.8H19V9.52C19 11.52 18.76 12.21 17.79 12.76C17.3281 13.03 16.7823 13.1181 16.259 13.0072C15.7356 12.8962 15.2725 12.5942 14.96 12.16C14.45 11.56 14.36 11.28 14.36 9.61V7.8H11.76C9.43996 7.8 8.96996 7.8 8.08996 8.31H8.05996ZM5.50996 28.73C5.50996 42.05 5.50996 42.19 7.12996 43.63C7.58906 44.0597 8.1251 44.399 8.70996 44.63C9.54996 44.86 40.5 44.86 41.34 44.63C41.9023 44.3847 42.4195 44.0466 42.87 43.63C44.49 42.19 44.49 42.05 44.49 28.73V17.08H5.48996V28.73H5.50996ZM15.21 22.09L15.16 26H6.80996L6.70996 22.1V18.25H15.29L15.21 22.09ZM24.54 21.91V25.57L23.33 25C22.3973 24.6092 21.3962 24.4079 20.385 24.4079C19.3737 24.4079 18.3726 24.6092 17.44 25C17.0773 25.1925 16.7032 25.3628 16.32 25.51C16.1727 24.3093 16.1258 23.0985 16.18 21.89V18.24H24.54V21.91V21.91ZM34 22.09V26L29.87 26.09L25.74 26.14V18.24H34.09V22.09H34ZM43.29 22.09V25.99H35.12L35.02 22.09V18.24H43.37L43.29 22.09ZM13.86 28.31C13.3646 29.2236 13.0788 30.2361 13.0235 31.2739C12.9681 32.3117 13.1445 33.3489 13.54 34.31C13.68 34.68 13.44 34.73 10.2 34.73H6.66996V27.06H14.56L13.86 28.31ZM24.54 30.86V34.72H16.18V27.06H24.54V30.86ZM34.05 30.86V34.72H30.43C27.09 34.72 26.81 34.72 27 34.3C27.1948 33.7216 27.3486 33.1301 27.46 32.53C27.6592 31.7573 27.6999 30.9522 27.5796 30.1634C27.4593 29.3745 27.1805 28.6182 26.76 27.94L26.16 27.06H34.05V30.86V30.86ZM43.33 30.86V34.72H35V27.06H43.35V30.86H43.33ZM14.84 36C15.21 36.32 15.25 36.78 15.25 40.08V43.79L12.14 43.7C9.44996 43.7 8.93996 43.56 8.38996 43.14C6.99996 42.1 6.80996 41.68 6.70996 38.52L6.61996 35.64H10.52C13.82 35.64 14.46 35.64 14.84 36.02V36ZM24.54 35.9C24.54 36.55 22.96 37.53 21.47 37.81C20.17 38.08 20.08 38.5 21.33 38.36C22.4077 38.1901 23.447 37.8312 24.4 37.3C24.5518 38.3595 24.5987 39.4313 24.54 40.5V43.75H16.18V40.61C16.18 37.69 16.23 37.45 16.6 37.61C18.32 38.31 18.97 38.5 19.34 38.36C19.71 38.22 19.34 37.99 18.04 37.36C17.04 36.84 16.27 36.36 16.23 36.06C16.19 35.76 16.51 35.68 20.36 35.68C23.7 35.68 24.54 35.68 24.54 35.96V35.9ZM34.05 39.66V43.75H25.7V40.05C25.7 38.05 25.79 36.2 25.84 36.05C25.97 35.72 26.58 35.67 30.01 35.67H34.01L34.05 39.66ZM43.33 38.5C43.24 41.66 43.05 42.08 41.62 43.14C41.06 43.61 40.62 43.65 38.04 43.65H35.12L35.02 39.65V35.65H43.42L43.37 38.53L43.33 38.5Z" fill="#4A4A4A"/>
</svg>