<svg width="49" height="50" viewBox="0 0 49 50" fill="none" xmlns="http://www.w3.org/2000/svg">
<path d="M23.501 3.97656C25.7376 3.97656 27.6428 5.39536 28.3662 7.38184C33.6767 7.43477 38.5526 9.39733 41.6162 13.2314C41.9389 13.1684 42.2722 13.1348 42.6133 13.1348C45.4719 13.1348 47.7898 15.452 47.79 18.3105C47.79 20.4362 46.5081 22.2616 44.6758 23.0586C44.4294 27.0994 42.6094 31.1748 39.6279 34.6133C40.0081 35.3337 40.2246 36.1542 40.2246 37.0254C40.2245 39.8839 37.9073 42.2009 35.0488 42.2012C33.6837 42.2012 32.4424 41.6721 31.5176 40.8086C26.9006 43.0624 21.8924 43.8258 17.4258 43.125C16.4938 44.4899 14.9268 45.3866 13.1494 45.3867C10.2908 45.3867 7.97287 43.0695 7.97266 40.2109C7.97266 39.6618 8.05838 39.1323 8.2168 38.6357C7.29794 37.7068 6.50054 36.642 5.85059 35.4424C4.1663 32.3336 3.78362 28.8883 4.45801 25.5039C2.9829 24.5919 2 22.9594 2 21.0977C2.00025 18.2393 4.31739 15.9221 7.17578 15.9219C7.85385 15.9219 8.50126 16.054 9.09473 16.291C11.0415 14.0089 13.4964 12.0001 16.3408 10.459C16.9975 10.1032 17.664 9.77923 18.3369 9.48535C18.33 9.37554 18.3252 9.26488 18.3252 9.15332C18.3252 6.29468 20.6424 3.97678 23.501 3.97656ZM28.4834 10.5547C27.872 12.7321 25.8738 14.3291 23.501 14.3291C21.8932 14.329 20.4562 13.5964 19.5068 12.4463C18.9555 12.6922 18.4055 12.9633 17.8584 13.2598C15.3073 14.6419 13.1861 16.3792 11.5342 18.3057C12.0515 19.1113 12.3524 20.0692 12.3525 21.0977C12.3525 23.8211 10.249 26.0517 7.57812 26.2568C7.07836 28.9657 7.41084 31.635 8.65137 33.9248C9.06037 34.6797 9.55848 35.3738 10.1328 36.0039C10.9821 35.3939 12.0239 35.0342 13.1494 35.0342C15.9509 35.0344 18.2303 37.2604 18.3203 40.04C21.902 40.5378 25.9849 39.9386 29.9688 38.0195C29.9061 37.6977 29.8721 37.3655 29.8721 37.0254C29.8721 34.1666 32.1901 31.8486 35.0488 31.8486C35.8802 31.8487 36.6652 32.0462 37.3613 32.3945C39.7379 29.6022 41.1329 26.4193 41.4316 23.3496C39.1427 22.8147 37.4375 20.7625 37.4375 18.3105C37.4376 16.9697 37.9468 15.7475 38.7832 14.8281C36.4111 12.1771 32.6938 10.6472 28.4834 10.5547Z" fill="#4A4A4A"/>
</svg>
