<svg width="50" height="50" viewBox="0 0 50 50" fill="none" xmlns="http://www.w3.org/2000/svg">
<path d="M27.8566 7.00038C27.3731 6.99394 26.838 7.06909 26.2621 7.243C23.3484 8.13187 23.4107 11.7947 24.7666 14.1135L39.5912 39.4423C41.3897 42.5147 44.2627 43.9919 46.6543 42.2699C49.7722 40.0241 46.6092 35.3801 45.769 33.963L32.8547 11.1463C31.892 9.44801 30.4888 7.03688 27.8566 7.00038ZM14.6822 7.12276C12.3938 7.12276 10.5522 8.66864 10.5522 10.5881V10.6117C10.4964 11.0604 10.4964 11.5307 10.5522 12.0137V20.9755C10.1354 20.8445 9.70131 20.778 9.2651 20.778C8.07252 20.778 6.92936 21.2718 6.08702 22.1499C5.24469 23.0281 4.77196 24.2197 4.77196 25.4607C4.77196 26.7038 5.24469 27.8933 6.08702 28.7714C6.92936 29.6496 8.07252 30.1434 9.2651 30.1434C9.70131 30.1434 10.1354 30.0769 10.5522 29.9459V39.3435C10.5522 41.263 12.3938 42.8088 14.6822 42.8088C16.9707 42.8088 18.8122 41.263 18.8122 39.3435V27.0066L25.9291 39.5217C27.6889 42.6156 30.9852 43.863 33.2887 42.023C35.7427 40.0628 33.2823 35.4509 32.4894 34.0274L20.05 11.5006C19.5042 10.5172 18.9304 9.62407 18.3008 8.90696C17.6025 7.83558 16.2444 7.11417 14.6801 7.11417L14.6844 7.12061L14.6822 7.12276ZM6.08058 7.76044C5.6895 7.76044 5.30271 7.83988 4.94171 7.99661C4.58071 8.15334 4.25195 8.38093 3.9769 8.66864C3.6997 8.95634 3.48053 9.29772 3.33226 9.6756C3.18399 10.0535 3.10663 10.455 3.10663 10.8629C3.10663 11.2709 3.18399 11.6745 3.33226 12.0502C3.48053 12.426 3.70185 12.7695 3.9769 13.0572C4.25409 13.3449 4.58071 13.5746 4.94171 13.7292C5.30271 13.8838 5.6895 13.9654 6.08058 13.9654C6.86919 13.9654 7.62772 13.6391 8.18426 13.0572C8.7408 12.4754 9.05667 11.6874 9.05667 10.8651C9.05667 10.4571 8.97931 10.0535 8.83105 9.67775C8.68278 9.30201 8.46145 8.95849 8.18641 8.67078C7.90921 8.38308 7.58259 8.15335 7.22159 7.99876C6.86059 7.84417 6.47381 7.76258 6.08273 7.76258L6.08058 7.76044ZM40.6419 12.1404C39.9307 12.1404 39.2474 12.4346 38.7445 12.9584C38.2417 13.4823 37.9581 14.193 37.9581 14.9359C37.9581 15.6766 38.2417 16.3894 38.7445 16.9133C39.2474 17.4372 39.9307 17.7313 40.6419 17.7313C40.9943 17.7313 41.3424 17.6583 41.6691 17.5188C41.9957 17.3792 42.2901 17.1731 42.5393 16.9133C42.7886 16.6535 42.9863 16.3465 43.1217 16.0051C43.257 15.6659 43.3258 15.303 43.3258 14.9359C43.3258 14.5687 43.257 14.2059 43.1217 13.8666C42.9863 13.5274 42.7886 13.2182 42.5393 12.9606C42.2901 12.7029 41.9935 12.4947 41.6691 12.3551C41.3446 12.2156 40.9943 12.1426 40.6419 12.1426V12.1404ZM5.39081 33.8492C4.94601 33.8492 4.50551 33.9415 4.09293 34.1176C3.68036 34.2937 3.30862 34.5556 2.99275 34.8841C2.67687 35.2126 2.42761 35.6012 2.25786 36.0306C2.0881 36.46 2 36.9195 2 37.3833C2 38.3194 2.3567 39.219 2.99275 39.8803C3.62879 40.5416 4.49046 40.9151 5.39081 40.9151C5.83561 40.9151 6.27612 40.8228 6.68869 40.6468C7.10126 40.4707 7.473 40.2088 7.78888 39.8803C8.10475 39.5518 8.35401 39.1632 8.52377 38.7337C8.69352 38.3043 8.78162 37.8449 8.78162 37.3811C8.78162 36.9173 8.69352 36.4579 8.52377 36.0285C8.35401 35.5991 8.1026 35.2104 7.78888 34.8819C7.47515 34.5534 7.09911 34.2937 6.68869 34.1154C6.27827 33.9372 5.83561 33.8492 5.39081 33.8492Z" fill="#4A4A4A"/>
</svg>