<svg width="50" height="50" viewBox="0 0 50 50" fill="none" xmlns="http://www.w3.org/2000/svg">
<path d="M24.9999 18.91H16.4599V27.43H24.9999V18.91ZM27.8699 33.13V36H13.6299V33.13H27.8699ZM27.8699 16.04V30.26H13.6299V16L27.8699 16.04ZM42.0699 33.13V36H30.6799V33.13H42.0699ZM42.0699 27.43V30.26H30.6799V27.43H42.0699ZM42.0699 21.74V24.61H30.6799V21.74H42.0699ZM42.0699 16.04V18.91H30.6799V16L42.0699 16.04ZM7.9299 37.39V16H5.0599V37.39C5.07698 37.7664 5.23418 38.1228 5.50062 38.3893C5.76706 38.6557 6.12349 38.8129 6.4999 38.83C6.68785 38.8292 6.87363 38.7897 7.04566 38.714C7.2177 38.6383 7.37232 38.528 7.4999 38.39C7.63706 38.2623 7.74613 38.1074 7.82016 37.9353C7.89419 37.7631 7.93157 37.5774 7.9299 37.39V37.39ZM44.9299 37.39V13.21H10.7599V37.39C10.7583 37.8798 10.6772 38.3661 10.5199 38.83H43.5199C43.7077 38.828 43.8931 38.788 44.0649 38.7124C44.2368 38.6367 44.3916 38.5271 44.5199 38.39C44.6516 38.2606 44.7538 38.1042 44.8194 37.9316C44.885 37.759 44.9124 37.5742 44.8999 37.39H44.9299ZM47.7899 10.39V37.39C47.798 37.9517 47.6933 38.5092 47.4821 39.0297C47.2709 39.5502 46.9574 40.0231 46.5602 40.4203C46.163 40.8175 45.6901 41.131 45.1697 41.3422C44.6492 41.5534 44.0916 41.6581 43.5299 41.65H6.4999C5.94345 41.6529 5.39192 41.5457 4.87706 41.3346C4.3622 41.1235 3.89416 40.8127 3.4999 40.42C3.09171 40.0374 2.77059 39.5715 2.55836 39.0539C2.34613 38.5362 2.24775 37.979 2.2699 37.42V13.21H7.9299V10.35L47.7899 10.39Z" fill="#4A4A4A"/>
</svg>