<svg width="50" height="50" viewBox="0 0 50 50" fill="none" xmlns="http://www.w3.org/2000/svg">
<path d="M47.9508 32.9952V41.2129C47.9559 41.5392 47.8939 41.8631 47.7686 42.1644C47.6433 42.4658 47.4574 42.7381 47.2225 42.9647C46.9937 43.196 46.7207 43.3788 46.4197 43.5022C46.1188 43.6257 45.796 43.6872 45.4707 43.6831H37.3022C36.6512 43.6729 36.0298 43.4091 35.5703 42.9477C35.1108 42.4864 34.8494 41.864 34.8418 41.2129V32.9952C34.8393 32.6698 34.9035 32.3474 35.0305 32.0478C35.1574 31.7482 35.3444 31.4778 35.5799 31.2532C35.8027 31.0186 36.074 30.8354 36.3748 30.7164C36.6757 30.5975 36.9989 30.5455 37.3219 30.5643H39.7626V25.6435H26.6536V30.5643H29.0845C29.4067 30.5525 29.7279 30.6076 30.0277 30.7262C30.3275 30.8448 30.5995 31.0242 30.8265 31.2532C31.2894 31.7159 31.5542 32.3407 31.5646 32.9952V41.2129C31.5569 41.8673 31.2928 42.4926 30.8291 42.9545C30.3654 43.4164 29.739 43.678 29.0845 43.6831H20.916C20.5905 43.693 20.2667 43.6331 19.9662 43.5075C19.6658 43.3818 19.3957 43.1934 19.1741 42.9548C18.7188 42.4829 18.4557 41.8584 18.436 41.203V32.9952C18.4335 32.6698 18.4977 32.3474 18.6246 32.0478C18.7516 31.7482 18.9386 31.4778 19.1741 31.2532C19.396 31.0175 19.6672 30.8336 19.9682 30.7145C20.2693 30.5955 20.5929 30.5442 20.916 30.5643H23.3469V25.6435H10.2379V30.5643H12.6983C13.0203 30.5543 13.341 30.6102 13.6405 30.7287C13.9401 30.8472 14.2123 31.0257 14.4403 31.2532C14.8961 31.7191 15.1536 32.3435 15.1587 32.9952V41.2129C15.1511 41.864 14.8897 42.4864 14.4303 42.9477C13.9708 43.4091 13.3494 43.6729 12.6983 43.6831H4.52984C4.20304 43.6918 3.87807 43.6315 3.5762 43.506C3.27432 43.3805 3.00234 43.1927 2.77805 42.9548C2.32957 42.4794 2.07053 41.8563 2.04977 41.203V32.9952C2.04543 32.6704 2.10783 32.3483 2.23311 32.0486C2.35838 31.749 2.54386 31.4782 2.77805 31.2532C3.00232 31.0178 3.27528 30.8342 3.57784 30.7153C3.88041 30.5963 4.20531 30.5448 4.52984 30.5643H6.96071V25.6435C6.95948 25.2071 7.04596 24.7749 7.21502 24.3725C7.38408 23.9701 7.63228 23.6058 7.94486 23.3013C8.2374 22.9732 8.5995 22.7146 9.00473 22.5443C9.40996 22.3741 9.84809 22.2964 10.2871 22.3171H23.3469V17.3963H20.916C20.5896 17.4062 20.2649 17.3454 19.9642 17.218C19.6636 17.0906 19.394 16.8996 19.1741 16.6582C18.7259 16.2055 18.4627 15.6019 18.436 14.9655V6.78713C18.4327 6.46019 18.4965 6.13605 18.6235 5.83474C18.7504 5.53344 18.9378 5.26137 19.1741 5.03534C19.4003 4.8034 19.6715 4.62005 19.971 4.49652C20.2705 4.37299 20.5921 4.31187 20.916 4.3169H29.0845C29.41 4.30705 29.7338 4.36694 30.0343 4.49255C30.3347 4.61816 30.6048 4.80658 30.8265 5.04518C31.2817 5.51706 31.5448 6.14159 31.5646 6.79697V15.0147C31.5706 15.3333 31.5078 15.6495 31.3804 15.9417C31.253 16.2338 31.0641 16.495 30.8265 16.7074C30.3592 17.1636 29.7373 17.4272 29.0845 17.4455H26.6536V22.3663H39.7626C40.1988 22.3667 40.6305 22.454 41.0327 22.6229C41.4348 22.7919 41.7993 23.0392 42.1049 23.3505C42.4329 23.643 42.6915 24.0051 42.8618 24.4103C43.0321 24.8156 43.1097 25.2537 43.089 25.6927V30.6135H45.5297C45.8517 30.6035 46.1724 30.6594 46.4719 30.7779C46.7715 30.8964 47.0437 31.0749 47.2717 31.3024C47.7276 31.769 47.9881 32.3921 48 33.0444L47.9508 32.9952Z" fill="#4A4A4A"/>
</svg>