<svg width="50" height="50" viewBox="0 0 50 50" fill="none" xmlns="http://www.w3.org/2000/svg">
<path d="M31.7939 8.16309L23.8633 13.9551C24.7449 14.257 25.6006 14.7947 26.4375 15.6406C27.3456 16.0588 28.1175 16.609 28.751 17.2949C30.1466 15.5384 32.6919 14.6592 36.3867 14.6592C39.7656 14.6592 42.4451 15.4039 44.4277 16.8906C46.6801 18.5566 47.8066 21.0119 47.8066 24.2559V40H40.2373V25.1338C40.2373 22.0254 38.953 20.4718 36.3867 20.4717C33.8183 20.4717 32.5342 22.0259 32.5342 25.1338V40H24.9668V25.1338C24.9668 22.9184 24.325 21.4929 23.043 20.8564C22.3349 21.3579 21.5845 21.7828 20.7998 22.1328C20.7399 22.2139 20.6808 22.2945 20.6191 22.3721C20.6191 22.3185 20.6162 22.2654 20.6143 22.2129C19.6454 22.6273 18.6261 22.9273 17.5664 23.1064C17.4082 23.6865 17.3301 24.3623 17.3301 25.1338V40H9.76074V24.2559C9.76075 23.6182 9.80557 23.0112 9.89258 22.4346C9.82756 22.4133 9.76137 22.3941 9.69629 22.3721C9.72405 22.2309 9.75152 22.0894 9.7793 21.9482C9.77608 21.9472 9.77275 21.9464 9.76953 21.9453L9.76855 21.9463C9.54131 20.3063 9.50248 18.9173 9.62793 17.75C8.37111 17.7221 6.99109 17.6664 5.42383 17.6172L1.99316 17.7275C1.86035 18.9538 1.84215 20.4855 1.86035 21.7432C1.86996 22.4068 1.88925 22.9917 1.90625 23.4102C1.91474 23.6191 1.92295 23.7872 1.92871 23.9023C1.93157 23.9595 1.93392 24.0042 1.93555 24.0342C1.93634 24.0488 1.93707 24.0608 1.9375 24.0684C1.9377 24.0718 1.93746 24.0752 1.9375 24.0771L1.93848 24.0791L1.87305 24.082C2.8234 27.6045 2.67642 30.3775 2.66895 33.7881C1.52464 31.0125 0.199135 27.8942 1.54004 24.1016L1.43848 24.1084V24.0967C1.43803 24.0888 1.43733 24.0765 1.43652 24.0615C1.43487 24.031 1.43258 23.9855 1.42969 23.9277C1.42386 23.8112 1.41578 23.6413 1.40723 23.4307C1.39009 23.0089 1.37004 22.419 1.36035 21.75C1.34245 20.5123 1.35974 18.9904 1.48926 17.7441L0.380859 17.7803L0.365234 17.2803L0.819336 17.2656C11.8789 10.6943 18.2762 9.33418 31.1504 8.0127L31.499 7.75879L31.7939 8.16309Z" fill="#4A4A4A"/>
</svg>