<svg width="50" height="50" viewBox="0 0 50 50" fill="none" xmlns="http://www.w3.org/2000/svg">
<path d="M24.4501 21.32C24.4589 21.9477 24.3341 22.57 24.0841 23.1459C23.8341 23.7217 23.4646 24.2378 23.0001 24.66C22.0299 25.5775 20.7455 26.0891 19.4101 26.09C18.104 26.1201 16.838 25.6378 15.883 24.7464C14.928 23.8549 14.3599 22.6251 14.3001 21.32C14.295 20.6804 14.4282 20.0472 14.6906 19.4638C14.9529 18.8804 15.3382 18.3606 15.8201 17.94C16.8018 17.0455 18.082 16.5496 19.4101 16.5496C20.7382 16.5496 22.0185 17.0455 23.0001 17.94C23.4784 18.3597 23.8568 18.8811 24.1077 19.4659C24.3585 20.0507 24.4755 20.6842 24.4501 21.32V21.32ZM36.2701 21.32C36.2751 21.949 36.1466 22.5719 35.8932 23.1476C35.6398 23.7233 35.2673 24.2388 34.8001 24.66C33.8277 25.574 32.5447 26.0851 31.2101 26.09C30.5468 26.1017 29.8877 25.9813 29.2714 25.7358C28.655 25.4903 28.0937 25.1246 27.6201 24.66C27.1539 24.2351 26.7788 23.72 26.5175 23.1459C26.2562 22.5718 26.1142 21.9506 26.1001 21.32C26.0924 20.68 26.2244 20.0459 26.4869 19.4622C26.7494 18.8784 27.1362 18.3589 27.6201 17.94C28.5904 17.0273 29.8782 16.5287 31.2101 16.55C32.5432 16.5222 33.8333 17.0218 34.8001 17.94C35.2703 18.3673 35.6445 18.8895 35.8979 19.4722C36.1513 20.0549 36.2782 20.6847 36.2701 21.32ZM41.5901 25.54V9.83C41.6839 8.80105 41.415 7.77169 40.8301 6.92C40.4857 6.59355 40.0724 6.3486 39.6206 6.20322C39.1689 6.05783 38.6903 6.01572 38.2201 6.08H12.0001C11.5254 6.0173 11.0427 6.0562 10.5841 6.19412C10.1256 6.33204 9.70152 6.56583 9.34011 6.88C8.78268 7.7761 8.5301 8.8285 8.62011 9.88V25.71C9.29508 26.0807 10.0011 26.3919 10.7301 26.64C11.4601 26.89 12.1001 27.12 12.6301 27.32C13.2466 27.5276 13.8836 27.6684 14.5301 27.74C15.2601 27.82 15.8301 27.91 16.2201 27.99C16.7646 28.085 17.3185 28.1152 17.8701 28.08C18.3183 28.0233 18.7719 28.0233 19.2201 28.08C19.6846 28.1316 20.1546 28.1046 20.6101 28C21.3101 27.89 21.6601 27.88 21.6601 28C22.4599 27.9154 23.2617 28.1409 23.9001 28.63C23.957 28.7148 24.028 28.7893 24.1101 28.85C24.5401 29.24 25.0101 29.65 25.5501 30.07C25.6568 28.63 26.5868 27.94 28.3401 28H29.2201H30.2201H31.2701C31.6923 28.0443 32.1179 28.0443 32.5401 28C32.9692 27.9603 33.401 27.9603 33.8301 28C34.3149 28.007 34.7978 27.9361 35.2601 27.79C35.7415 27.638 36.2376 27.5375 36.7401 27.49C37.2875 27.4317 37.8178 27.2652 38.3001 27C38.8138 26.7354 39.3533 26.5243 39.9101 26.37C40.5178 26.1927 41.0873 25.9045 41.5901 25.52V25.54ZM45.4401 25.46C43.0413 28.1236 40.022 30.1537 36.6501 31.37C37.9801 35.84 37.7901 39.5 36.1101 42.37C35.6595 43.2056 35.0459 43.9423 34.3056 44.5366C33.5653 45.1309 32.7133 45.5707 31.8001 45.83C31.1076 46.0932 30.3653 46.1992 29.6269 46.1404C28.8884 46.0816 28.1722 45.8595 27.5301 45.49C26.8678 45.0984 26.3326 44.524 25.9885 43.8358C25.6444 43.1476 25.5061 42.3748 25.5901 41.61V33.92L25.0001 33.78L24.4501 33.65V41.59C24.5342 42.3548 24.3959 43.1276 24.0518 43.8158C23.7077 44.504 23.1724 45.0784 22.5101 45.47C21.8595 45.8363 21.1369 46.0565 20.3926 46.1152C19.6483 46.1739 18.9001 46.0698 18.2001 45.81C16.357 45.2595 14.8072 44.0009 13.8901 42.31C12.2634 39.4567 12.0968 35.81 13.3901 31.37C10.0182 30.1537 6.99887 28.1236 4.60011 25.46C4.41307 25.255 4.30287 24.9914 4.28828 24.7143C4.27369 24.4372 4.35562 24.1635 4.52011 23.94C4.86011 23.52 5.32011 23.53 5.91011 23.94C6.01329 23.9909 6.11345 24.0476 6.21011 24.11C6.2995 24.1572 6.38335 24.2142 6.46011 24.28V8C6.44228 6.92222 6.8356 5.87812 7.56011 5.08C7.89093 4.6911 8.30602 4.3827 8.77386 4.17824C9.2417 3.97377 9.74999 3.87862 10.2601 3.9H39.8601C40.3677 3.89638 40.8704 3.99956 41.3356 4.20285C41.8008 4.40614 42.218 4.70499 42.5601 5.08C42.9279 5.46778 43.2119 5.9272 43.3942 6.42959C43.5766 6.93199 43.6535 7.46657 43.6201 8V24.32L44.1301 23.98C44.7201 23.56 45.1301 23.54 45.5201 23.98C45.9101 24.42 45.8301 24.88 45.4401 25.5V25.46Z" fill="#4A4A4A"/>
</svg>