<?xml version="1.0" encoding="UTF-8"?>
<svg id="vote" xmlns="http://www.w3.org/2000/svg" viewBox="0 0 156.53 156.53">
  <defs>
    <style>
      .cls-1 {
        fill: #FFFFFF;
      }
    </style>
  </defs>
  <path class="cls-1" d="M39.66,79.79h0l43.6,28.55c.78.51,1.69.78,2.62.78,1.62,0,3.13-.81,4.01-2.17l39.99-61.06c1.45-2.21.83-5.19-1.38-6.63l-43.6-28.55c-.78-.51-1.71-.78-2.64-.78-.32,0-.65.03-.97.1-1.25.26-2.33,1-3.03,2.07l-39.99,61.06c-.7,1.07-.94,2.35-.68,3.6.26,1.25,1,2.33,2.07,3.03ZM69.53,52.1c.76-1.35,2-2.32,3.49-2.73h0c3.07-.85,6.28.96,7.13,4.03l1.88,6.77,18.23-9.09c1.38-.69,2.95-.8,4.42-.31,1.47.49,2.66,1.52,3.35,2.91.69,1.38.8,2.95.31,4.42s-1.52,2.66-2.91,3.35l-24.52,12.23c-.8.4-1.69.61-2.58.61-.82,0-1.61-.17-2.36-.5-1.59-.71-2.76-2.07-3.23-3.74l-3.76-13.54c-.41-1.49-.22-3.05.54-4.4Z"/>
  <path class="cls-1" d="M134.03,99.44h-17.64c-2.64,0-4.79,2.15-4.79,4.79s2.15,4.79,4.79,4.79h12.85v23.41H32.97v-23.41h15.5c2.64,0,4.79-2.15,4.79-4.79s-2.15-4.79-4.79-4.79h-20.29c-2.64,0-4.79,2.15-4.79,4.79v33c0,2.64,2.15,4.79,4.79,4.79h105.86c2.64,0,4.79-2.15,4.79-4.79v-33c0-2.64-2.15-4.79-4.79-4.79Z"/>
</svg>