<svg width="50" height="50" viewBox="0 0 50 50" fill="none" xmlns="http://www.w3.org/2000/svg">
<path d="M43.9369 10.4836C43.9066 9.57841 43.5619 8.80203 42.9067 8.14684C42.2515 7.49165 41.4714 7.16595 40.57 7.16595H38.9529V6.79101L38.9566 6.77208V6.75314C38.9566 5.82906 38.6082 4.95042 37.9795 4.27629C37.3054 3.55672 36.4041 3.12119 35.3739 3.01515L35.2187 3H33.4235C32.4881 3 31.6019 3.32191 30.8633 3.93544C29.9393 4.70046 29.4583 5.77604 29.5189 6.88191V7.16974H21.6755V6.7948L21.6793 6.77586V6.75693C21.6793 5.83285 21.3309 4.95421 20.7022 4.28008C20.0281 3.56051 19.1267 3.12498 18.0966 3.01894L17.9413 3.00379H16.1462C15.2107 3.00379 14.3245 3.3257 13.586 3.93923C12.6619 4.70425 12.181 5.77982 12.2415 6.88569V7.17352H9.3784C8.47325 7.17352 7.69687 7.49923 7.04168 8.15442C6.38649 8.80961 6.06079 9.58977 6.06079 10.4911V43.6824C6.06079 44.5875 6.38649 45.3639 7.04168 46.0191C7.69687 46.6743 8.47704 47 9.3784 47H30.7194C31.6094 47 32.4653 46.6478 33.1016 46.0229L42.9219 36.3427C43.5695 35.7065 43.9331 34.8354 43.9331 33.9265V10.4873L43.9369 10.4836ZM32.5373 10.457L32.5752 7.16216V6.74935C32.5752 6.71148 32.5714 6.67361 32.5752 6.63195C32.579 6.59029 32.5941 6.55621 32.613 6.51455C32.632 6.47289 32.6585 6.4388 32.6926 6.39714C32.7267 6.35927 32.7645 6.3214 32.8138 6.27974C32.9539 6.16233 33.1016 6.09038 33.2607 6.06008C33.3137 6.04872 33.3667 6.04493 33.4197 6.04493H35.0558C35.1278 6.0525 35.1997 6.06387 35.2641 6.0828C35.3967 6.11689 35.5103 6.16612 35.6087 6.23808C35.658 6.27216 35.7034 6.31382 35.7451 6.35548C35.7981 6.4085 35.836 6.47289 35.8587 6.53727C35.8852 6.60165 35.8966 6.67361 35.8966 6.74178V7.15459L35.8549 10.4495L35.8322 12.3014C35.8322 12.3545 35.8284 12.4037 35.817 12.4491C35.8057 12.4946 35.7943 12.54 35.7716 12.5817C35.7337 12.665 35.6731 12.7407 35.5974 12.8051C35.4421 12.9339 35.2376 12.9983 34.9914 12.9983H33.3553C33.3212 12.9983 33.2872 13.0021 33.2531 13.0021C33.2455 13.0021 33.2379 13.0021 33.2304 12.9983C33.1433 12.9983 33.0637 12.9831 32.988 12.9566C32.9766 12.9528 32.9653 12.9453 32.9501 12.9415C32.8744 12.9074 32.8062 12.8657 32.7456 12.8051C32.7191 12.7824 32.7001 12.7559 32.6812 12.7294C32.6055 12.6347 32.5487 12.5362 32.5259 12.434C32.5146 12.3885 32.5108 12.3469 32.5108 12.3014L32.5335 10.4495L32.5373 10.457ZM15.3016 7.16216V6.74935C15.2903 6.67361 15.3016 6.59408 15.3433 6.51833C15.3849 6.44259 15.4493 6.36306 15.5402 6.28731C15.669 6.18127 15.8015 6.11689 15.9455 6.0828C16.0136 6.06765 16.078 6.05629 16.15 6.05629H17.7595C17.8315 6.06387 17.9035 6.07523 17.9678 6.09416C17.9035 6.07902 17.8315 6.06387 17.7595 6.05629H17.7898C17.8618 6.06387 17.9337 6.07523 17.9981 6.09416C18.1307 6.12825 18.2443 6.17748 18.3428 6.24944C18.392 6.28353 18.4375 6.32518 18.4791 6.36684C18.5321 6.41987 18.57 6.48425 18.5927 6.54863C18.6192 6.61301 18.6306 6.68497 18.6306 6.75314V7.16595L18.5889 10.4608L18.5662 12.3128C18.5662 12.3658 18.5624 12.415 18.5511 12.4605C18.5397 12.5059 18.5283 12.5514 18.5056 12.593C18.4677 12.6764 18.4072 12.7521 18.3314 12.8165C18.1761 12.9453 17.9716 13.0096 17.7255 13.0096H16.0894C16.0553 13.0096 16.0212 13.0134 15.9871 13.0134C15.9795 13.0134 15.972 13.0134 15.9644 13.0096C15.8773 13.0096 15.7978 12.9945 15.722 12.968C15.7106 12.9642 15.6993 12.9566 15.6841 12.9528C15.6084 12.9187 15.5402 12.8771 15.4796 12.8165C15.4531 12.7938 15.4342 12.7673 15.4152 12.7407C15.3395 12.6461 15.2827 12.5476 15.26 12.4453C15.2486 12.3999 15.2448 12.3582 15.2448 12.3128L15.3054 7.16595L15.3016 7.16216ZM40.57 32.0291H35.8587V20.5955C35.8587 19.9403 35.3247 19.4063 34.6695 19.4063H33.9083C33.5674 19.4063 33.2341 19.535 32.969 19.7698C31.8329 20.7772 30.3937 21.6445 29.1174 22.0876C28.6705 22.2429 28.3676 22.6709 28.3676 23.148V23.7275C28.3676 24.0949 28.538 24.4281 28.8334 24.644C29.1288 24.8599 29.4962 24.9167 29.8408 24.8031C30.6285 24.5455 31.6473 24.1252 32.4426 23.6669V32.0329H31.0489C30.1892 32.0329 29.4924 32.7335 29.4999 33.5932L29.5757 43.6748H9.39734V13.0172H12.2453C12.3892 13.7519 12.7566 14.4336 13.3133 14.9866C14.0178 15.6872 14.9608 16.0735 15.972 16.0735C16.0401 16.0735 16.1121 16.0735 16.1803 16.0697H17.7103C18.676 16.0697 19.5623 15.7592 20.2705 15.1721C20.9408 14.6192 21.3801 13.8542 21.5392 13.0172H29.5189C29.6628 13.7519 30.0302 14.4336 30.5869 14.9866C31.2913 15.6872 32.2343 16.0735 33.2455 16.0735C33.3137 16.0735 33.3856 16.0735 33.4538 16.0697H34.9838C35.9496 16.0697 36.8358 15.7592 37.544 15.1721C38.2144 14.6192 38.6537 13.8542 38.8127 13.0172H40.5624V32.0367L40.57 32.0291Z" fill="#4A4A4A"/>
<path d="M23.5656 28.6963C24.467 28.1547 25.7281 26.9731 25.7281 24.6213C25.7281 21.8982 23.7777 19.1487 19.4224 19.1487C15.0671 19.1487 13.734 21.5801 13.1924 23.0268C13.0333 23.4586 13.0902 23.9244 13.3553 24.3069C13.6242 24.6932 14.0635 24.9242 14.5331 24.9242H14.9459C15.5405 24.9242 16.0707 24.5644 16.2676 24.0267C16.7524 22.7011 17.7295 22.0838 19.3315 22.0838C21.21 22.0838 22.331 23.0685 22.331 24.7197C22.331 26.6133 21.335 27.4238 18.9982 27.4238H18.8695C18.0855 27.4238 17.4493 28.0601 17.4493 28.8857C17.4493 29.7113 18.0855 30.3059 18.8695 30.3059H19.2255C21.8121 30.3059 23.1263 31.461 23.1263 33.7447C23.1263 36.0284 21.7705 37.3766 19.4944 37.3766C17.0554 37.3766 16.1237 35.8731 15.7829 34.9793C15.5822 34.4529 15.0557 34.0969 14.4687 34.0969H13.9574C13.4992 34.0969 13.0636 34.3203 12.7948 34.6953C12.5259 35.074 12.4577 35.5436 12.6092 35.9791C13.556 38.7173 16.0215 40.2852 19.3732 40.2852C24.6866 40.2852 26.5727 36.7555 26.5727 33.7333C26.5727 31.389 25.4895 29.5939 23.5656 28.6963Z" fill="#4A4A4A"/>
</svg>