<svg width="24" height="24" viewBox="0 0 24 24" fill="none" xmlns="http://www.w3.org/2000/svg">
<path d="M2 17.9444V10C2 9.40741 2.21759 8.90741 2.65278 8.5C3.08796 8.09259 3.60185 7.90741 4.19444 7.94445C5.65741 8.16667 7.05093 8.59722 8.375 9.23611C9.69907 9.875 10.9074 10.7037 12 11.7222C13.0926 10.7037 14.3009 9.875 15.625 9.23611C16.9491 8.59722 18.3426 8.16667 19.8056 7.94445C20.3981 7.90741 20.912 8.09259 21.3472 8.5C21.7824 8.90741 22 9.40741 22 10V17.9444C22 18.537 21.8056 19.0417 21.4167 19.4583C21.0278 19.875 20.537 20.1019 19.9444 20.1389C18.7593 20.3241 17.6111 20.6296 16.5 21.0556C15.3889 21.4815 14.3519 22.0463 13.3889 22.75C13.1852 22.9167 12.9676 23.0417 12.7361 23.125C12.5046 23.2083 12.2593 23.25 12 23.25C11.7407 23.25 11.4954 23.2083 11.2639 23.125C11.0324 23.0417 10.8148 22.9167 10.6111 22.75C9.64815 22.0463 8.61111 21.4815 7.5 21.0556C6.38889 20.6296 5.24074 20.3241 4.05556 20.1389C3.46296 20.1019 2.97222 19.875 2.58333 19.4583C2.19444 19.0417 2 18.537 2 17.9444ZM12 21C13.1667 20.1296 14.4074 19.4352 15.7222 18.9167C17.037 18.3981 18.3889 18.0556 19.7778 17.8889V10.2222C18.4259 10.463 17.0972 10.9491 15.7917 11.6806C14.4861 12.412 13.2222 13.3889 12 14.6111C10.7778 13.3889 9.51389 12.412 8.20833 11.6806C6.90278 10.9491 5.57407 10.463 4.22222 10.2222V17.8889C5.61111 18.0556 6.96296 18.3981 8.27778 18.9167C9.59259 19.4352 10.8333 20.1296 12 21ZM12 8.88889C10.7778 8.88889 9.73148 8.4537 8.86111 7.58333C7.99074 6.71296 7.55556 5.66667 7.55556 4.44444C7.55556 3.22222 7.99074 2.17593 8.86111 1.30556C9.73148 0.435185 10.7778 0 12 0C13.2222 0 14.2685 0.435185 15.1389 1.30556C16.0093 2.17593 16.4444 3.22222 16.4444 4.44444C16.4444 5.66667 16.0093 6.71296 15.1389 7.58333C14.2685 8.4537 13.2222 8.88889 12 8.88889ZM12 6.66667C12.6111 6.66667 13.1343 6.44907 13.5694 6.01389C14.0046 5.5787 14.2222 5.05556 14.2222 4.44444C14.2222 3.83333 14.0046 3.31019 13.5694 2.875C13.1343 2.43982 12.6111 2.22222 12 2.22222C11.3889 2.22222 10.8657 2.43982 10.4306 2.875C9.99537 3.31019 9.77778 3.83333 9.77778 4.44444C9.77778 5.05556 9.99537 5.5787 10.4306 6.01389C10.8657 6.44907 11.3889 6.66667 12 6.66667Z" fill="#4A4A4A"/>
</svg>
