<svg width="24" height="24" viewBox="0 0 24 24" fill="none" xmlns="http://www.w3.org/2000/svg">
<path fill-rule="evenodd" clip-rule="evenodd"  d="M10 3.33333C10 2.89131 9.82428 2.46751 9.51172 2.15495C9.32184 1.96507 9.09069 1.82654 8.83952 1.74642L5.83333 8.51074V16.6667H14.4092C14.6101 16.6689 14.8054 16.5983 14.9585 16.4681C15.1115 16.338 15.2123 16.1572 15.2425 15.9587L15.2433 15.957L16.3924 8.45866L16.4014 8.36833C16.4052 8.27822 16.3941 8.18758 16.3688 8.10059C16.3351 7.98477 16.277 7.87749 16.1979 7.78646C16.1186 7.6953 16.02 7.62271 15.9098 7.57324C15.7996 7.52381 15.6798 7.49863 15.5591 7.5H10.8333C10.3731 7.5 10 7.1269 10 6.66667V3.33333ZM1.66667 15.8333C1.66667 16.0543 1.75453 16.2662 1.91081 16.4225C2.06709 16.5788 2.27899 16.6667 2.5 16.6667H4.16667V9.16667H2.5C2.27899 9.16667 2.06709 9.25453 1.91081 9.41081C1.75453 9.56709 1.66667 9.77899 1.66667 10V15.8333ZM11.6667 5.83333H15.5501C15.9093 5.83064 16.2649 5.90516 16.5926 6.05225C16.9232 6.20062 17.2175 6.41929 17.4552 6.69271C17.693 6.9661 17.8685 7.28799 17.9696 7.63591C18.0706 7.98394 18.0947 8.35019 18.0404 8.7085V8.70931L16.8905 16.2093C16.7999 16.805 16.4967 17.3482 16.0376 17.7384C15.5807 18.1267 14.9996 18.337 14.4002 18.3325V18.3333H2.5C1.83696 18.3333 1.20126 18.0698 0.732422 17.6009C0.263581 17.1321 0 16.4964 0 15.8333V10C0 9.33696 0.263581 8.70126 0.732422 8.23242C1.20126 7.76358 1.83696 7.5 2.5 7.5H4.45801L7.57161 0.494792L7.62939 0.38737C7.78061 0.148566 8.04512 0 8.33333 0C9.21739 0 10.065 0.351441 10.6901 0.976563C11.3152 1.60168 11.6667 2.44928 11.6667 3.33333V5.83333Z" fill="#4A4A4A"/>
</svg>
