<svg width="24" height="24" viewBox="0 0 24 24" fill="none" xmlns="http://www.w3.org/2000/svg">
<path d="M16 1C16.5523 1 17 1.44772 17 2V3H18.5C19.0523 3 19.5 3.44772 19.5 4C19.5 4.55228 19.0523 5 18.5 5H17V6C17 6.55228 16.5523 7 16 7C15.4477 7 15 6.55228 15 6V5H9V6C9 6.55228 8.55228 7 8 7C7.44772 7 7 6.55228 7 6V5H5C4.44772 5 4 5.44772 4 6V9H11C11.5523 9 12 9.44771 12 10C12 10.5523 11.5523 11 11 11H4V20C4 20.5523 4.44772 21 5 21H19C19.5523 21 20 20.5523 20 20V16C20 15.4477 20.4477 15 21 15C21.5523 15 22 15.4477 22 16V20C22 21.6569 20.6569 23 19 23H5C3.34315 23 2 21.6569 2 20V6C2 4.34315 3.34315 3 5 3H7V2C7 1.44772 7.44772 1 8 1C8.55228 1 9 1.44772 9 2V3H15V2C15 1.44772 15.4477 1 16 1ZM19.584 6.9209C20.1611 6.50455 20.8805 6.3347 21.583 6.44824C21.9308 6.50453 22.2647 6.62845 22.5645 6.81348C22.8643 6.99858 23.1249 7.24163 23.3311 7.52734C23.5371 7.81295 23.6845 8.13682 23.7656 8.47949C23.8467 8.82236 23.8609 9.17856 23.8047 9.52637C23.7484 9.87421 23.6226 10.208 23.4375 10.5078C23.2526 10.8072 23.0109 11.0675 22.7256 11.2734L11.3457 19.4834C11.1988 19.5893 11.0252 19.6527 10.8447 19.668L7.58398 19.9453C7.23437 19.9748 6.89491 19.8186 6.68945 19.5342C6.48394 19.2493 6.44252 18.8765 6.58105 18.5537L7.87109 15.5469L7.93359 15.4258C8.00306 15.3103 8.096 15.2093 8.20605 15.1299L19.584 6.9209ZM21.2637 8.42285C21.0848 8.39404 20.9008 8.43697 20.7539 8.54297L9.59863 16.5908L9.07617 17.8115L10.4014 17.6982L21.5547 9.65234C21.6273 9.59992 21.6893 9.53319 21.7363 9.45703C21.7834 9.38073 21.8157 9.29554 21.8301 9.20703C21.8444 9.11844 21.84 9.02679 21.8193 8.93945C21.7987 8.85247 21.7622 8.7698 21.71 8.69727C21.6575 8.62452 21.59 8.56278 21.5137 8.51562C21.4375 8.46865 21.352 8.43719 21.2637 8.42285Z" fill="#4A4A4A"/>
</svg>
