<svg width="18" height="12" viewBox="0 0 18 12" fill="none" xmlns="http://www.w3.org/2000/svg">
<path fill-rule="evenodd" clip-rule="evenodd" d="M2.25 1.5C1.83579 1.5 1.5 1.83579 1.5 2.25V9.75C1.5 10.1642 1.83579 10.5 2.25 10.5H11.7624C11.9722 10.5 12.1724 10.4121 12.3144 10.2578L15.7639 6.50775C16.0279 6.22073 16.0279 5.77927 15.7639 5.49225L12.3144 1.74225C12.1724 1.58786 11.9722 1.5 11.7624 1.5H2.25ZM0 2.25C0 1.00736 1.00736 0 2.25 0H11.7624C12.3918 0 12.9923 0.26357 13.4184 0.726747L16.8679 4.47675C17.6599 5.33781 17.6599 6.66219 16.8679 7.52325L13.4184 11.2733C12.9923 11.7364 12.3918 12 11.7624 12H2.25C1.00736 12 0 10.9926 0 9.75V2.25Z" fill="#4A4A4A"/>
</svg>
