<svg width="24" height="24" viewBox="0 0 24 24" fill="none" xmlns="http://www.w3.org/2000/svg">
<g clip-path="url(#clip0_8818_4919)">
<path fill-rule="evenodd" clip-rule="evenodd" d="M10.2724 1.97688C11.0442 0.653869 12.9558 0.653864 13.7275 1.97688L16.496 6.72278L21.6565 7.91367C23.1012 8.24706 23.6936 9.98143 22.7547 11.1289L19.102 15.5933L19.88 21.0389C20.1041 22.608 18.5011 23.8019 17.062 23.1377L12 20.8014L6.938 23.1377C5.49888 23.8019 3.89584 22.608 4.11999 21.0389L4.89793 15.5933L1.24525 11.1289C0.306379 9.98143 0.898767 8.24706 2.34344 7.91367L7.50399 6.72278L10.2724 1.97688ZM14.7684 7.73052L12 2.98462L9.23154 7.73052C8.9536 8.207 8.4912 8.54752 7.9537 8.67156L2.79316 9.86246L6.44584 14.3268C6.80031 14.7601 6.95699 15.322 6.87783 15.8762L6.09989 21.3217L11.1619 18.9854C11.6937 18.74 12.3063 18.74 12.8381 18.9854L17.9001 21.3217L17.1221 15.8762C17.043 15.322 17.1997 14.7601 17.5541 14.3268L21.2068 9.86246L16.0463 8.67156C15.5088 8.54752 15.0464 8.207 14.7684 7.73052Z" fill="#4A4A4A"/>
</g>
<defs>
<clipPath id="clip0_8818_4919">
<rect width="24" height="24" fill="white"/>
</clipPath>
</defs>
</svg>
