<svg width="24" height="24" viewBox="0 0 24 24" fill="none" xmlns="http://www.w3.org/2000/svg">
<path d="M19.7754 8.46585C21.1166 9.36262 22 10.8906 22 12.625V21C21.9999 21.5522 21.5522 22 21 22C20.4478 22 20.0001 21.5522 20 21V12.625C20 11.4391 19.3103 10.4167 18.3115 9.92972L19.7754 8.46585ZM7.91797 2.293C8.30849 1.90247 8.94151 1.90247 9.33203 2.293C9.72239 2.68354 9.7225 3.31659 9.33203 3.70706L5.41406 7.62503H12.1328L10.1328 9.62503H5.41406L7.77344 11.9844L6.35938 13.3985L2.29297 9.33206C1.90246 8.94156 1.90251 8.30853 2.29297 7.918L7.91797 2.293Z" fill="#4A4A4A"/>
<path d="M20.2929 2.29292C20.6834 1.9024 21.3164 1.9024 21.707 2.29292C22.0975 2.68345 22.0975 3.31646 21.707 3.70699L4.70696 20.707C4.31643 21.0975 3.68342 21.0975 3.29289 20.707C2.90237 20.3165 2.90237 19.6834 3.29289 19.2929L20.2929 2.29292Z" fill="#4A4A4A"/>
</svg>
