<svg width="20" height="20" viewBox="0 0 20 20" fill="none" xmlns="http://www.w3.org/2000/svg">
<path d="M14.9883 1.66699C15.84 1.66712 16.6065 2.1858 16.9229 2.97656L18.2754 6.35742C18.2806 6.37049 18.2836 6.38429 18.2881 6.39746C18.2915 6.40758 18.2958 6.41744 18.2988 6.42773C18.303 6.44165 18.3061 6.45574 18.3096 6.46973C18.3127 6.48267 18.3158 6.49562 18.3184 6.50879C18.321 6.52247 18.3232 6.53611 18.3252 6.5498C18.327 6.56276 18.3289 6.57573 18.3301 6.58887C18.3319 6.60877 18.3326 6.6286 18.333 6.64844C18.3331 6.65451 18.334 6.66089 18.334 6.66699V16.0488C18.334 16.6638 18.0811 17.2478 17.6406 17.6738C17.2011 18.0989 16.6109 18.333 16.001 18.333H4.00098C3.39103 18.333 2.80083 18.0989 2.36133 17.6738C1.92083 17.2478 1.66797 16.6638 1.66797 16.0488V6.64844C1.66839 6.62863 1.66903 6.60875 1.6709 6.58887C1.67211 6.57575 1.67397 6.56274 1.67578 6.5498C1.67773 6.53613 1.67997 6.52245 1.68262 6.50879C1.68514 6.49563 1.68827 6.48266 1.69141 6.46973C1.69395 6.45933 1.69626 6.44884 1.69922 6.43848L1.70508 6.41895C1.71326 6.39264 1.72275 6.36691 1.7334 6.3418L3.08008 2.97656C3.39646 2.1858 4.16198 1.66713 5.01367 1.66699H14.9883ZM3.33398 16.0488C3.33398 16.2035 3.39742 16.3584 3.51953 16.4766C3.64254 16.5955 3.81553 16.667 4.00098 16.667H16.001C16.1864 16.667 16.3594 16.5955 16.4824 16.4766C16.6045 16.3584 16.668 16.2035 16.668 16.0488V7.5H3.33398V16.0488ZM11.668 9.16699C12.1281 9.16717 12.501 9.53987 12.501 10C12.501 10.4601 12.1281 10.8328 11.668 10.833H8.33398C7.8739 10.8328 7.50098 10.4601 7.50098 10C7.50098 9.53987 7.8739 9.16717 8.33398 9.16699H11.668ZM5.01367 3.33301C4.84344 3.33314 4.69117 3.43763 4.62793 3.5957L3.73242 5.83301H16.2705L15.375 3.5957C15.3118 3.43762 15.1585 3.33314 14.9883 3.33301H5.01367Z" fill="#4A4A4A"/>
</svg>
