<svg width="24" height="24" viewBox="0 0 24 24" fill="none" xmlns="http://www.w3.org/2000/svg">
<g clip-path="url(#clip0_2491_15589)">
<path fill-rule="evenodd" clip-rule="evenodd" d="M10.9847 5.2832C11.1256 6.26833 11.9694 7 12.9646 7H22V19H2V4H9.5C10.254 4 10.881 4.55815 10.9847 5.2832ZM1.90244 2C0.851751 2 0 2.85175 0 3.90244V19C0 20.1046 0.89543 21 2 21H22C23.1046 21 24 20.1046 24 19V7C24 5.89543 23.1046 5 22 5H12.9646C12.7219 3.30385 11.2632 2 9.5 2H1.90244ZM12 8C12.5523 8 13 8.44772 13 9V12H16C16.5523 12 17 12.4477 17 13C17 13.5523 16.5523 14 16 14H13V17C13 17.5523 12.5523 18 12 18C11.4477 18 11 17.5523 11 17V14H8C7.44771 14 7 13.5523 7 13C7 12.4477 7.44771 12 8 12H11V9C11 8.44772 11.4477 8 12 8Z" fill="#4A4A4A"/>
</g>
<defs>
<clipPath id="clip0_2491_15589">
<rect width="24" height="24" fill="white"/>
</clipPath>
</defs>
</svg>
