<svg width="24" height="24" viewBox="0 0 24 24" fill="none" xmlns="http://www.w3.org/2000/svg">
<g clip-path="url(#clip0_6933_45606)">
<path fill-rule="evenodd" clip-rule="evenodd" d="M1.14254 8.9855C1.42668 8.51192 2.04094 8.35836 2.51452 8.64251L11.4855 14.0251C11.8022 14.2151 12.1978 14.2151 12.5145 14.0251L21.4855 8.64251C21.9591 8.35836 22.5734 8.51192 22.8575 8.9855C23.1417 9.45908 22.9881 10.0733 22.5145 10.3575L13.5435 15.7401C12.5935 16.3101 11.4066 16.3101 10.4565 15.7401L1.48553 10.3575C1.01195 10.0733 0.858388 9.45908 1.14254 8.9855Z" fill="#4A4A4A"/>
<path fill-rule="evenodd" clip-rule="evenodd" d="M12.4661 2.39927C12.1737 2.23682 11.8263 2.23683 11.5339 2.39927C10.2009 3.13971 7.70347 4.54564 5.54355 5.86538C4.46069 6.52702 3.48128 7.15573 2.77969 7.6623C2.42544 7.91808 2.16816 8.1241 2.00864 8.27469C2.0057 8.27747 2.00282 8.2802 2 8.28289V19.2852C2 19.2853 2 19.2857 1 19.2857C0 19.2857 0 19.2857 0 19.2856V7.99998C0 7.61909 0.191165 7.33647 0.272117 7.2241C0.379165 7.07551 0.51031 6.93875 0.635701 6.82038C0.890011 6.5803 1.22989 6.31446 1.60892 6.04079C2.37389 5.48846 3.40557 4.82792 4.50078 4.15874C6.69701 2.81681 9.22367 1.39472 10.5626 0.650916C11.4591 0.152941 12.5409 0.152942 13.4374 0.650916C14.7763 1.39472 17.303 2.81681 19.4992 4.15874C20.5944 4.82792 21.6261 5.48846 22.3911 6.04079C22.7701 6.31446 23.11 6.5803 23.3643 6.82038C23.4897 6.93875 23.6208 7.07551 23.7279 7.2241C23.8088 7.33647 24 7.61909 24 7.99998V19.2852C24 19.2853 24 19.2857 23 19.2857C22 19.2857 22 19.2857 22 19.2856V8.28289C21.9972 8.2802 21.9943 8.27747 21.9914 8.27469C21.8318 8.1241 21.5746 7.91808 21.2203 7.6623C20.5187 7.15573 19.5393 6.52702 18.4564 5.86538C16.2965 4.54564 13.7991 3.13971 12.4661 2.39927ZM2.32091 19.8026C2.57401 19.9949 2.96792 20.1428 3.44444 20.1428H20.5556C21.0321 20.1428 21.426 19.9949 21.6791 19.8026C21.9314 19.6109 22 19.4186 22 19.2856L23 19.2857L24 19.2852C24 20.1778 23.5213 20.9147 22.889 21.3952C22.2574 21.875 21.4291 22.1428 20.5556 22.1428H3.44444C2.57094 22.1428 1.74263 21.875 1.11101 21.3952C0.478657 20.9147 0 20.1782 0 19.2856L1 19.2857L2 19.2852C2 19.4183 2.06855 19.6109 2.32091 19.8026Z" fill="#4A4A4A"/>
</g>
<defs>
<clipPath id="clip0_6933_45606">
<rect width="24" height="24" fill="white"/>
</clipPath>
</defs>
</svg>
