<svg width="24" height="24" viewBox="0 0 24 24" fill="none" xmlns="http://www.w3.org/2000/svg">
<path fill-rule="evenodd" clip-rule="evenodd" d="M6.5 5C6.22386 5 6 5.22386 6 5.5V20.5C6 20.7761 6.22386 21 6.5 21H18.5C18.7761 21 19 20.7761 19 20.5V12.5C19 11.9477 19.4477 11.5 20 11.5C20.5523 11.5 21 11.9477 21 12.5V20.5C21 21.8807 19.8807 23 18.5 23H6.5C5.11929 23 4 21.8807 4 20.5V5.5C4 4.11929 5.11929 3 6.5 3H11.5C12.0523 3 12.5 3.44772 12.5 4C12.5 4.55228 12.0523 5 11.5 5H6.5Z" fill="#4A4A4A"/>
<path fill-rule="evenodd" clip-rule="evenodd" d="M8 9C8 8.44772 8.44772 8 9 8H12C12.5523 8 13 8.44772 13 9C13 9.55228 12.5523 10 12 10H9C8.44772 10 8 9.55228 8 9Z" fill="#4A4A4A"/>
<path fill-rule="evenodd" clip-rule="evenodd" d="M8 13C8 12.4477 8.44772 12 9 12H16C16.5523 12 17 12.4477 17 13C17 13.5523 16.5523 14 16 14H9C8.44772 14 8 13.5523 8 13Z" fill="#4A4A4A"/>
<path fill-rule="evenodd" clip-rule="evenodd" d="M8 17C8 16.4477 8.44772 16 9 16H16C16.5523 16 17 16.4477 17 17C17 17.5523 16.5523 18 16 18H9C8.44772 18 8 17.5523 8 17Z" fill="#4A4A4A"/>
<path d="M18.5844 10.6113L18.8919 9.90436C19.432 8.6535 20.4217 7.65034 21.6657 7.09282L22.6157 6.67065C22.7305 6.61759 22.8276 6.53283 22.8957 6.42637C22.9638 6.31992 23 6.19621 23 6.06987C23 5.94353 22.9638 5.81982 22.8957 5.71337C22.8276 5.60691 22.7305 5.52215 22.6157 5.46909L21.7182 5.06941C20.4429 4.49602 19.4363 3.45577 18.9057 2.16294L18.5894 1.40104C18.543 1.28282 18.462 1.18133 18.3569 1.1098C18.2519 1.03826 18.1278 1 18.0007 1C17.8736 1 17.7494 1.03826 17.6444 1.1098C17.5394 1.18133 17.4584 1.28282 17.4119 1.40104L17.0957 2.16419C16.5645 3.45677 15.5574 4.49658 14.2819 5.06941L13.3856 5.46784C13.2705 5.52075 13.173 5.60552 13.1047 5.71212C13.0363 5.81871 13 5.94265 13 6.06925C13 6.19584 13.0363 6.31978 13.1047 6.42638C13.173 6.53297 13.2705 6.61774 13.3856 6.67065L14.3344 7.09407C15.5786 7.65103 16.5688 8.65375 17.1094 9.90436L17.4169 10.6113C17.465 10.7264 17.5461 10.8248 17.6499 10.8939C17.7538 10.9631 17.8758 11 18.0007 11C18.1255 11 18.2475 10.9631 18.3514 10.8939C18.4553 10.8248 18.5364 10.7264 18.5844 10.6113Z" fill="#4A4A4A"/>
</svg>
