<svg width="20" height="20" viewBox="0 0 20 20" fill="none" xmlns="http://www.w3.org/2000/svg">
<path d="M14.5833 1.66699C15.7337 1.66724 16.6663 2.59956 16.6663 3.75V9.29199C16.9525 9.21509 17.2427 9.19513 17.5296 9.23926C18.1228 9.33057 18.5968 9.6746 18.8987 10.1084C19.4944 10.9646 19.4964 12.3026 18.4368 13.1504C17.3975 13.9817 16.3903 14.8591 15.3743 15.6982C14.3839 16.5162 13.3986 17.2854 12.4993 17.8047C12.0742 18.0501 11.5932 18.1562 11.1321 18.2002C10.6682 18.2444 10.1701 18.23 9.67899 18.1982C8.64155 18.1311 7.67835 17.9961 6.6663 17.9961C5.81456 17.9961 5.23789 18.488 4.92411 19.1748C4.73297 19.5933 4.23915 19.7778 3.82059 19.5869C3.40194 19.3957 3.21731 18.9011 3.40848 18.4824C3.9282 17.3448 5.01855 16.3291 6.6663 16.3291C7.73749 16.3291 8.91864 16.48 9.78641 16.5361C10.2477 16.566 10.6431 16.5727 10.9749 16.541C11.3091 16.5091 11.5272 16.4426 11.6663 16.3623C12.4335 15.9193 13.3242 15.2295 14.3128 14.4131C15.2756 13.618 16.352 12.6846 17.3958 11.8496C17.6863 11.6171 17.6889 11.2883 17.5306 11.0605C17.4554 10.9526 17.363 10.9001 17.2766 10.8867C17.1988 10.8747 17.0223 10.8792 16.7493 11.084C15.5443 11.9877 13.3496 13.5684 12.3811 14.4463C11.9097 14.8737 11.3232 14.9999 10.8333 15H8.33329C7.87319 15 7.49952 14.627 7.4993 14.167C7.49936 13.7068 7.87309 13.334 8.33329 13.334H10.8333C11.0607 13.3339 11.1923 13.2741 11.261 13.2119C11.2923 13.1836 11.3341 13.1236 11.3577 13.0293C11.381 12.9359 11.3788 12.8392 11.3548 12.7607C11.3324 12.6879 11.2936 12.6353 11.2395 12.5967C11.1859 12.5584 11.0683 12.5001 10.8333 12.5C9.99964 12.5 8.64878 12.2756 7.54813 12.1279C6.96921 12.0502 6.44029 11.9905 6.01395 11.9727C5.80114 11.9638 5.63173 11.9655 5.50614 11.9775C5.38781 11.9889 5.35147 12.0052 5.36258 12C4.66517 12.3512 3.95149 12.9778 3.32645 13.6709C2.70429 14.3609 2.21924 15.0621 1.97294 15.4932C1.74449 15.8923 1.23562 16.0308 0.836217 15.8027C0.436752 15.5745 0.297648 15.0656 0.52567 14.666C0.834882 14.1249 1.39199 13.3268 2.08915 12.5537C2.66873 11.9111 3.3822 11.2476 4.1663 10.7646V3.75C4.1663 2.59947 5.0988 1.6671 6.2493 1.66699H14.5833ZM6.2493 3.33301C6.01927 3.33311 5.83329 3.51995 5.83329 3.75V10.3018C5.9159 10.3024 5.99946 10.3031 6.08329 10.3066C6.59134 10.3279 7.18467 10.398 7.76981 10.4766C8.99757 10.6413 10.1477 10.834 10.8333 10.834C11.3573 10.8341 11.8274 10.9692 12.2073 11.2402C12.4783 11.4335 12.6777 11.6787 12.8138 11.9453C13.542 11.3844 14.3407 10.7929 14.9993 10.3057V3.75C14.9993 3.52003 14.8132 3.33326 14.5833 3.33301H6.2493ZM11.6663 5C12.1264 5.00007 12.4991 5.37296 12.4993 5.83301C12.4993 6.2932 12.1265 6.66692 11.6663 6.66699H9.1663C8.70606 6.66699 8.33329 6.29325 8.33329 5.83301C8.33346 5.37292 8.70617 5 9.1663 5H11.6663Z" fill="#4A4A4A"/>
</svg>
