<svg width="24" height="24" viewBox="0 0 24 24" fill="none" xmlns="http://www.w3.org/2000/svg">
<path fill-rule="evenodd" clip-rule="evenodd" d="M9.14444 4.12896C9.07214 4.19183 8.99999 4.29335 8.99999 4.5V9.25213V13C8.99999 13.4045 8.75635 13.7691 8.38267 13.9239C8.009 14.0787 7.57888 13.9931 7.29288 13.7071L5.82417 12.2384C5.68711 12.102 5.5081 12.0148 5.31616 11.9912C5.2997 11.9892 5.28322 11.9876 5.26674 11.9865C5.09104 11.9751 4.91556 12.0172 4.76377 12.1079C4.6523 12.1749 4.57131 12.2827 4.53799 12.4084C4.52716 12.4492 4.52164 12.491 4.52131 12.5325C4.52063 12.6191 4.5424 12.705 4.58553 12.7817C5.00144 13.5211 5.36232 14.1651 5.67854 14.7295C6.80508 16.74 7.36554 17.7402 7.83397 18.4482L7.84189 18.4604C8.23091 19.0673 8.72868 19.7385 9.85399 20.4117C10.5783 20.7981 11.3867 21.0001 12.2078 21H14C15.3261 21 16.5978 20.4732 17.5355 19.5355C18.4732 18.5979 19 17.3261 19 16V11.5C19 11.3674 18.9473 11.2402 18.8535 11.1465C18.7598 11.0527 18.6326 11 18.5 11C18.3674 11 18.2402 11.0527 18.1464 11.1465C18.0527 11.2402 18 11.3674 18 11.5V12C18 12.5523 17.5523 13 17 13C16.4477 13 16 12.5523 16 12V10.5001C16 10.3029 15.9298 10.2008 15.8511 10.133C15.7498 10.0458 15.6089 10 15.5 10C15.391 10 15.2502 10.0458 15.1489 10.133C15.0702 10.2008 15 10.3029 15 10.5001V12C15 12.5523 14.5523 13 14 13C13.4477 13 13 12.5523 13 12V9.50011C13 9.30568 12.9304 9.20319 12.8497 9.13395C12.746 9.045 12.6042 9 12.5 9C12.3958 9 12.254 9.045 12.1503 9.13395C12.0696 9.20319 12 9.30568 12 9.50011V12C12 12.5523 11.5523 13 11 13C10.4477 13 9.99999 12.5523 9.99999 12V8.51969V4.5C9.99999 4.29383 9.92824 4.19339 9.8562 4.13085C9.76258 4.04959 9.62409 4.00032 9.49747 4C9.37469 3.99969 9.23795 4.04765 9.14444 4.12896ZM12 7.05479V4.5C12 2.81847 10.6117 2.0028 9.50251 2.00001C8.3848 1.99719 6.99999 2.82208 6.99999 4.5V10.6112C6.58676 10.2815 6.08868 10.071 5.55994 10.0061C4.92616 9.92827 4.28451 10.064 3.73656 10.3919C3.17813 10.7267 2.77159 11.2666 2.60476 11.8959C2.43793 12.5252 2.5232 13.1948 2.84241 13.7622C3.24135 14.4715 3.5921 15.0976 3.90332 15.6531L3.90335 15.6532C5.0399 17.682 5.65011 18.7712 6.162 19.5457C6.66122 20.3237 7.36761 21.2601 8.85026 22.1418C8.8624 22.149 8.87468 22.156 8.88711 22.1627C9.90766 22.7124 11.0489 23.0002 12.2082 23H14C15.8565 23 17.637 22.2625 18.9497 20.9498C20.2625 19.637 21 17.8565 21 16V11.5C21 10.837 20.7366 10.2011 20.2678 9.73224C19.7989 9.2634 19.163 9 18.5 9C18.1995 9 17.9046 9.05409 17.6284 9.15688C17.1347 8.37889 16.2389 8 15.5 8C15.2223 8 14.9224 8.05352 14.6301 8.16162C14.135 7.37963 13.2342 7 12.5 7C12.3393 7 12.1706 7.01819 12 7.05479ZM13.0255 3.27546C13.1495 2.73728 13.6863 2.40151 14.2245 2.52551C15.6858 2.86219 17.2646 3.39803 18.5117 4.14083C18.9862 4.42345 19.1418 5.03722 18.8591 5.51171C18.5765 5.9862 17.9628 6.14174 17.4883 5.85912C16.4831 5.26041 15.1221 4.7847 13.7755 4.47445C13.2373 4.35045 12.9015 3.81365 13.0255 3.27546ZM1.33822 5.25037C0.924178 5.61587 0.884827 6.24781 1.25033 6.66185C1.61582 7.07589 2.24777 7.11524 2.66181 6.74974C3.40098 6.09723 4.532 5.334 5.4328 4.90156C5.93068 4.66254 6.14053 4.06516 5.90151 3.56727C5.66249 3.06939 5.06511 2.85954 4.56723 3.09856C3.49001 3.6157 2.20636 4.48401 1.33822 5.25037Z" fill="#4A4A4A"/>
</svg>
