<svg width="20" height="20" viewBox="0 0 20 20" fill="none" xmlns="http://www.w3.org/2000/svg">
<path fill-rule="evenodd" clip-rule="evenodd" d="M10.1766 12.5028C12.8753 12.5814 15 14.391 15 16.7809C15 17.7981 14.0516 18.3335 13.2764 18.3337H6.72607C5.94574 18.3336 5.00249 17.7942 5.00244 16.7809V16.75C5.00144 16.7333 5 16.7165 5 16.6995C5 14.1678 7.51602 12.4253 10.1766 12.5028ZM10.1286 14.1686C8.06845 14.1086 6.69589 15.4043 6.66748 16.6597C6.6837 16.6634 6.70318 16.667 6.72607 16.667H13.2764C13.2966 16.667 13.3141 16.6636 13.3293 16.6605C13.258 15.4394 12.1071 14.2264 10.1286 14.1686Z" fill="#4A4A4A"/>
<path d="M3.88428 9.16943C4.40243 9.18669 4.88995 9.29729 5.3304 9.48763C5.75286 9.67021 5.94753 10.1606 5.76497 10.583C5.59379 10.9791 5.15203 11.1745 4.74935 11.0469L4.6696 11.0176L4.47917 10.946C4.28236 10.8823 4.06506 10.8432 3.82894 10.8353C2.65718 10.7963 1.78784 11.5912 1.67887 12.5003H4.16667C4.6269 12.5003 5 12.8734 5 13.3337C5 13.7939 4.6269 14.167 4.16667 14.167H1.45671C0.713565 14.167 0.000123268 13.5961 0 12.7583V12.6932C4.69248e-07 10.6399 1.81854 9.10072 3.88428 9.16943Z" fill="#4A4A4A"/>
<path d="M16.3843 9.16943C18.3797 9.23568 20 10.8155 20 12.7583C19.9999 13.6 19.2821 14.167 18.5433 14.167H15.8333C15.3731 14.167 15 13.7939 15 13.3337C15 12.8734 15.3731 12.5003 15.8333 12.5003H18.3114C18.1792 11.6267 17.3902 10.8705 16.3289 10.8353C15.9676 10.8233 15.63 10.8929 15.3345 11.0225C14.913 11.2071 14.4214 11.015 14.2367 10.5936C14.052 10.1721 14.2441 9.68054 14.6655 9.49577C15.1875 9.26695 15.7724 9.14908 16.3843 9.16943Z" fill="#4A4A4A"/>
<path fill-rule="evenodd" clip-rule="evenodd" d="M10 4.16699C11.8409 4.16699 13.3333 5.65938 13.3333 7.50033C13.3333 9.34127 11.8409 10.8337 10 10.8337C8.15905 10.8337 6.66667 9.34127 6.66667 7.50033C6.66667 5.65938 8.15905 4.16699 10 4.16699ZM10 5.83366C9.07952 5.83366 8.33333 6.57985 8.33333 7.50033C8.33333 8.4208 9.07952 9.16699 10 9.16699C10.9205 9.16699 11.6667 8.4208 11.6667 7.50033C11.6667 6.57985 10.9205 5.83366 10 5.83366Z" fill="#4A4A4A"/>
<path fill-rule="evenodd" clip-rule="evenodd" d="M3.75 1.66699C5.36083 1.66699 6.66667 2.97283 6.66667 4.58366C6.66667 6.19449 5.36083 7.50033 3.75 7.50033C2.13917 7.50033 0.833334 6.19449 0.833333 4.58366C0.833333 2.97283 2.13917 1.66699 3.75 1.66699ZM3.75 3.33366C3.05964 3.33366 2.5 3.8933 2.5 4.58366C2.5 5.27401 3.05964 5.83366 3.75 5.83366C4.44036 5.83366 5 5.27401 5 4.58366C5 3.8933 4.44036 3.33366 3.75 3.33366Z" fill="#4A4A4A"/>
<path fill-rule="evenodd" clip-rule="evenodd" d="M16.25 1.66699C17.8608 1.66699 19.1667 2.97283 19.1667 4.58366C19.1667 6.19449 17.8608 7.50033 16.25 7.50033C14.6392 7.50033 13.3333 6.19449 13.3333 4.58366C13.3333 2.97283 14.6392 1.66699 16.25 1.66699ZM16.25 3.33366C15.5596 3.33366 15 3.8933 15 4.58366C15 5.27401 15.5596 5.83366 16.25 5.83366C16.9404 5.83366 17.5 5.27401 17.5 4.58366C17.5 3.8933 16.9404 3.33366 16.25 3.33366Z" fill="#4A4A4A"/>
</svg>
