<svg width="24" height="24" viewBox="0 0 24 24" fill="none" xmlns="http://www.w3.org/2000/svg">
<path fill-rule="evenodd" clip-rule="evenodd" d="M13.962 3.06747C15.2949 2.25825 17 3.21778 17 4.77705V18.223C17 19.7823 15.2949 20.7418 13.962 19.9326L10.1679 17.629C10.0818 18.1617 9.87651 18.6839 9.54486 19.1546C8.3775 20.8116 6.08798 21.2084 4.43106 20.0411C3.27091 19.2237 2.73002 17.8574 2.90796 16.5451C1.79109 16.1084 1 15.0216 1 13.75V9.25002C1 7.59317 2.34315 6.25002 4 6.25002H8.44039C8.62341 6.25002 8.80292 6.19979 8.95937 6.10481L13.962 3.06747ZM4.89972 16.75H8.18914C8.26428 17.1743 8.17664 17.6241 7.90989 18.0028C7.37871 18.7567 6.33691 18.9373 5.58296 18.4061C5.03773 18.022 4.79074 17.3694 4.89972 16.75ZM15 4.77705L9.99732 7.81438C9.52799 8.09934 8.98946 8.25002 8.44039 8.25002H4C3.44772 8.25002 3 8.69774 3 9.25002V13.75C3 14.3023 3.44772 14.75 4 14.75H8.44039C8.98946 14.75 9.52799 14.9007 9.99733 15.1857L15 18.223L15 4.77705ZM21.0547 7.83216C21.5142 7.5258 21.6384 6.90493 21.332 6.44541C21.0257 5.98588 20.4048 5.8617 19.9453 6.16806L18.4453 7.16806C17.9858 7.47441 17.8616 8.09528 18.1679 8.55481C18.4743 9.01434 19.0952 9.13851 19.5547 8.83216L21.0547 7.83216ZM18.1679 15.4454C18.4743 14.9859 19.0952 14.8617 19.5547 15.1681L21.0547 16.1681C21.5142 16.4744 21.6384 17.0953 21.332 17.5548C21.0257 18.0143 20.4048 18.1385 19.9453 17.8322L18.4453 16.8322C17.9858 16.5258 17.8616 15.9049 18.1679 15.4454ZM19.5 11C18.9477 11 18.5 11.4477 18.5 12C18.5 12.5523 18.9477 13 19.5 13H21.5C22.0523 13 22.5 12.5523 22.5 12C22.5 11.4477 22.0523 11 21.5 11H19.5Z" fill="#4A4A4A"/>
</svg>
