<svg width="24" height="24" viewBox="0 0 24 24" fill="none" xmlns="http://www.w3.org/2000/svg">
<g clip-path="url(#clip0_2251_15719)">
<path fill-rule="evenodd" clip-rule="evenodd" d="M11.9999 22C17.5227 22 21.9999 17.5228 21.9999 12C21.9999 6.47712 17.5227 1.99997 11.9999 1.99997C6.47703 1.99997 1.99988 6.47712 1.99988 12C1.99988 17.5228 6.47703 22 11.9999 22ZM11.9999 24C18.6273 24 23.9999 18.6274 23.9999 12C23.9999 5.37255 18.6273 -3.05176e-05 11.9999 -3.05176e-05C5.37246 -3.05176e-05 -0.00012207 5.37255 -0.00012207 12C-0.00012207 18.6274 5.37246 24 11.9999 24Z" fill="#4A4A4A"/>
<path fill-rule="evenodd" clip-rule="evenodd" d="M16.9435 2.76108C16.9438 2.76071 16.9441 2.76034 16.9444 2.75996C17.0957 2.57082 17.1342 2.30699 17.0338 2.0772L16.6184 2.25866L16.5613 2.38782L16.4828 2.99906C16.6458 2.99073 16.818 2.91701 16.9435 2.76108ZM16.3726 2.98478C16.3511 2.97796 16.3295 2.96984 16.308 2.96032L16.4035 2.74442L16.3726 2.98478ZM16.3822 2.98773L16.4137 2.72127L16.5588 2.39333L16.4783 2.99928C16.4612 3.00003 16.4442 3.00006 16.4274 2.99939C16.4124 2.99612 16.3973 2.99224 16.3822 2.98773ZM16.6184 2.25866L17.0338 2.0772C17.2219 2.50679 17.4454 3.1804 17.5384 3.83237C17.5846 4.15565 17.6076 4.53327 17.545 4.89626C17.4839 5.25087 17.3113 5.74344 16.8308 6.05642L16.7414 6.11461L15.5261 6.57882C15.5261 6.57883 15.5262 6.5788 15.5261 6.57882C15.0621 6.75616 14.76 7.15204 14.7055 7.59116L14.7045 7.59869L14.6954 7.66773C14.5586 8.6182 13.694 8.81899 13.5607 8.84532C13.1468 8.92669 12.4484 8.85188 12.0421 8.20449L12.0355 8.19402L11.8119 7.81738C11.4624 8.54508 11.0944 9.38869 11.0032 10.1376L11.0031 10.1387C10.9915 10.2324 11.0123 10.3256 11.0444 10.3862L11.0669 10.4287L11.5452 11.5902C11.6421 11.7605 11.7898 11.9144 11.9822 12.0308C12.3419 12.248 13.1116 12.7426 13.6359 13.3532C13.6765 13.4004 13.8998 13.5743 14.5356 13.7514C15.1691 13.9282 15.6693 14.4817 15.717 15.1828C15.7747 16.0317 15.9098 16.5524 16.0517 16.8317C16.099 16.9249 16.1367 16.9702 16.1552 16.9891L16.1877 16.99L16.238 16.9965C16.2379 16.9964 16.2452 16.9974 16.2587 16.9983C16.2721 16.9992 16.2907 17 16.3136 17C16.4541 17 16.6892 16.9698 16.9166 16.8104C17.2352 16.5866 17.5511 16.1074 17.6724 15.13L17.6725 15.1289C17.7232 14.7245 17.7926 14.2155 17.911 13.7002L17.9747 13.3597C18.0154 13.1424 18.0702 12.8516 18.1261 12.5578C18.1819 12.2646 18.2393 11.9664 18.2852 11.7351C18.308 11.62 18.3287 11.5179 18.3453 11.4401C18.3534 11.4018 18.3617 11.3642 18.3694 11.3318C18.3731 11.316 18.3781 11.2956 18.3839 11.2741C18.3838 11.2745 18.384 11.2739 18.3839 11.2741C18.3863 11.2649 18.4029 11.2027 18.4312 11.135C18.497 10.9779 18.6226 10.7923 18.8394 10.6607C19.0532 10.531 19.2683 10.5068 19.4231 10.5158C19.6844 10.5309 19.8672 10.644 19.912 10.6717L19.913 10.6723C20.0369 10.749 20.1287 10.8413 20.162 10.8749C20.2524 10.966 20.3449 11.0776 20.4128 11.162C20.4865 11.2537 20.5569 11.3458 20.6076 11.4132C20.6332 11.4473 20.6546 11.4762 20.6698 11.4967L20.6877 11.5211L20.6929 11.5281L20.695 11.5311C20.6951 11.5312 20.6952 11.5313 20.3115 11.8105C20.3115 11.8105 20.3115 11.8105 20.3115 11.8105L20.695 11.5311L20.7078 11.5487L20.7197 11.5666C20.7612 11.629 20.8386 11.6862 20.9414 11.7054C21.0481 11.7254 21.1561 11.6991 21.2326 11.6444L22.2726 10.8995C22.1112 11.0154 21.9999 11.2112 21.9999 11.4363H23.9999C23.9999 11.879 23.7813 12.279 23.4377 12.5251M23.4377 12.5251L22.3973 13.2702C22.3973 13.2702 22.3973 13.2702 22.3973 13.2702C21.8702 13.6478 21.2071 13.7899 20.5736 13.6713C20.3695 13.6331 20.1723 13.5686 19.987 13.4801C19.9702 13.5697 19.9544 13.6534 19.9404 13.7284L19.8733 14.087L19.8692 14.1091L19.8642 14.1307C19.7674 14.5471 19.7069 14.9791 19.657 15.3775C19.4981 16.6559 19.0241 17.775 18.0648 18.448C17.3953 18.9171 16.7132 19 16.3136 19C16.2025 19 16.1076 18.9937 16.0333 18.986C15.1858 18.9432 14.6054 18.4003 14.2687 17.7377C13.9785 17.1667 13.82 16.4324 13.7441 15.6024C13.1096 15.4015 12.5092 15.1111 12.1185 14.656C11.8178 14.3059 11.289 13.9486 10.9483 13.7429C10.445 13.4386 10.0284 13.0064 9.75489 12.4842L9.7336 12.4435L9.25149 11.2728C9.04343 10.8556 8.95961 10.3696 9.01803 9.89458L10.0106 10.0166L9.01789 9.89573C9.16818 8.66191 9.79271 7.38924 10.1535 6.65411C10.1619 6.63689 10.1702 6.61996 10.1784 6.60334C10.4703 6.00815 11.0639 5.6411 11.7048 5.61018L11.7134 5.60977C12.229 5.58931 12.7442 5.785 13.1086 6.16914C13.4805 5.51016 14.0804 4.99022 14.8122 4.71057L15.5833 4.41605C15.5829 4.33884 15.5762 4.23867 15.5585 4.115C15.4961 3.67774 15.3329 3.17909 15.2014 2.87862C15.001 2.42005 15.0749 1.89362 15.3844 1.5084L16.164 2.13474L15.3835 1.50952C15.3838 1.50915 15.3841 1.50877 15.3844 1.5084C15.6939 1.12291 16.1701 0.956849 16.6162 1.0096L16.6261 1.01077L16.7407 1.02554C16.8677 1.04242 16.9947 1.07716 17.1172 1.13134L16.6184 2.25866M20.3101 11.8115C20.3101 11.8115 20.3101 11.8115 20.3101 11.8115C20.2803 11.8332 20.2482 11.8566 20.2136 11.8817L20.3101 11.8115ZM20.3198 11.7758C20.3198 11.7763 20.3183 11.7825 20.3154 11.793C20.3183 11.7808 20.3198 11.7754 20.3198 11.7758Z" fill="#4A4A4A"/>
<path fill-rule="evenodd" clip-rule="evenodd" d="M6.04452 14.0912C6.528 13.933 7.09309 13.9766 7.55214 14.2543C8.12725 14.6018 8.35695 15.1933 8.35695 15.7564V16.5028C8.35695 16.8406 8.43829 17.0495 8.54829 17.1973C8.66418 17.353 8.87655 17.5269 9.27883 17.6774L11.0294 18.3323C11.5626 18.5315 12.0495 18.8175 12.4716 19.1859L12.8155 19.486C12.8155 19.486 12.8155 19.486 12.8155 19.486C13.8314 20.3727 14.2609 21.7272 13.8399 23.0143L13.7422 23.3118L11.8419 22.6881L11.939 22.3924C12.0909 21.928 11.9605 21.3944 11.5004 20.9929L11.1565 20.6928C10.9238 20.4896 10.6474 20.3246 10.3291 20.2057L8.57814 19.5506C8.57812 19.5506 8.57815 19.5506 8.57814 19.5506C7.92278 19.3055 7.34935 18.9362 6.9439 18.3914C6.53254 17.8387 6.35695 17.1898 6.35695 16.5028V16.1211L2.42777 17.7257L1.67163 15.8742L6.01045 14.1023L6.04452 14.0912Z" fill="#4A4A4A"/>
<path fill-rule="evenodd" clip-rule="evenodd" d="M8.87578 2.99116C8.96022 3.48533 9.0001 3.98671 8.9999 4.31133C8.9999 4.31116 8.9999 4.31151 8.9999 4.31133M8.9997 5.15006C8.9997 5.14998 8.9997 5.15014 8.9997 5.15006L8.9999 4.31133L8.9997 5.15006ZM8.9997 5.15006C8.99962 5.99801 8.59076 6.8088 7.99873 7.41864L6.19573 9.27589C6.19573 9.27589 6.19574 9.27588 6.19573 9.27589C5.98812 9.48978 5.91132 9.80577 6.00903 10.1074C6.29603 10.9929 5.87329 11.982 4.99225 12.3519L1.39921 13.9168L0.600586 12.0832L4.06264 10.5753C3.80925 9.62054 4.06571 8.59874 4.76067 7.88283L6.56372 6.02554C6.88497 5.69462 6.9997 5.35967 6.9997 5.14982L6.9999 4.31086C7.00005 4.11391 6.9723 3.72567 6.90436 3.32804C6.82982 2.89184 6.73517 2.62021 6.68218 2.53695L8.36936 1.46298C8.65526 1.91213 8.79788 2.53528 8.87578 2.99116M4.10648 10.7241C4.10644 10.724 4.10653 10.7243 4.10648 10.7241V10.7241Z" fill="#4A4A4A"/>
</g>
<defs>
<clipPath id="clip0_2251_15719">
<rect width="24" height="24" fill="white"/>
</clipPath>
</defs>
</svg>
