<svg width="20" height="16" viewBox="0 0 20 16" fill="none" xmlns="http://www.w3.org/2000/svg">
<path fill-rule="evenodd" clip-rule="evenodd" d="M2.87037 2.16667C2.152 2.16667 1.66667 2.69818 1.66667 3.2381L1.66667 12.7619C1.66667 13.3018 2.152 13.8333 2.87037 13.8333L17.1296 13.8333C17.848 13.8333 18.3333 13.3018 18.3333 12.7619L18.3333 3.2381C18.3333 2.69818 17.848 2.16667 17.1296 2.16667L2.87037 2.16667ZM0 3.2381C0 1.67407 1.33869 0.5 2.87037 0.5L17.1296 0.5C18.6613 0.5 20 1.67407 20 3.2381L20 12.7619C20 14.3259 18.6613 15.5 17.1296 15.5L2.87037 15.5C1.33869 15.5 0 14.3259 0 12.7619L0 3.2381Z" fill="#4A4A4A"/>
<path fill-rule="evenodd" clip-rule="evenodd" d="M10.0083 12.1667C9.5481 12.1667 9.175 11.7936 9.175 11.3333L9.175 7.16667C9.175 6.70643 9.5481 6.33333 10.0083 6.33333C10.4686 6.33333 10.8417 6.70643 10.8417 7.16667L10.8417 11.3333C10.8417 11.7936 10.4686 12.1667 10.0083 12.1667Z" fill="#4A4A4A"/>
<path fill-rule="evenodd" clip-rule="evenodd" d="M10.8417 4.25C10.8417 4.71024 10.4686 5.08333 10.0083 5.08333H10C9.53976 5.08333 9.16667 4.71024 9.16667 4.25C9.16667 3.78976 9.53976 3.41667 10 3.41667H10.0083C10.4686 3.41667 10.8417 3.78976 10.8417 4.25Z" fill="#4A4A4A"/>
</svg>
