<svg width="24" height="24" viewBox="0 0 24 24" fill="none" xmlns="http://www.w3.org/2000/svg">
<path fill-rule="evenodd" clip-rule="evenodd" d="M8.06885 15.0007C8.06885 15.4427 8.24457 15.8665 8.55713 16.179C8.74701 16.3689 8.97816 16.5074 9.22933 16.5876L12.2355 9.82324L12.2355 1.66732H3.65967C3.4587 1.66504 3.26349 1.73572 3.11035 1.86588C2.95736 1.99598 2.85652 2.17678 2.82633 2.37532L2.82552 2.37695L1.67643 9.87533L1.66748 9.96566C1.66368 10.0558 1.67478 10.1464 1.70003 10.2334C1.73371 10.3492 1.7918 10.4565 1.87093 10.5475C1.9502 10.6387 2.04881 10.7113 2.15902 10.7607C2.2692 10.8102 2.38901 10.8354 2.50977 10.834L7.23551 10.834C7.69575 10.834 8.06885 11.2071 8.06885 11.6673V15.0007ZM16.4022 2.50065C16.4022 2.27964 16.3143 2.06774 16.158 1.91146C16.0018 1.75518 15.7899 1.66732 15.5688 1.66732H13.9022L13.9022 9.16732H15.5688C15.7899 9.16732 16.0018 9.07946 16.158 8.92318C16.3143 8.7669 16.4022 8.555 16.4022 8.33398L16.4022 2.50065ZM6.40218 12.5007H2.51872C2.15958 12.5033 1.80396 12.4288 1.47624 12.2817C1.14565 12.1334 0.851393 11.9147 0.613607 11.6413C0.375876 11.3679 0.200342 11.046 0.0992843 10.6981C-0.0017592 10.35 -0.0259008 9.98379 0.0284835 9.62549V9.62467L1.17839 2.12467C1.26898 1.52894 1.5721 0.985815 2.03125 0.59554C2.48817 0.207279 3.06924 -0.00300243 3.66862 0.00146397V0.000650167H15.5688C16.2319 0.000650167 16.8676 0.264232 17.3364 0.733072C17.8053 1.20191 18.0688 1.83761 18.0688 2.50065L18.0688 8.33398C18.0688 8.99703 17.8053 9.63272 17.3364 10.1016C16.8676 10.5704 16.2319 10.834 15.5688 10.834H13.6108L10.4972 17.8392L10.4395 17.9466C10.2882 18.1854 10.0237 18.334 9.73551 18.334C8.85146 18.334 8.00387 17.9825 7.37874 17.3574C6.75362 16.7323 6.40218 15.8847 6.40218 15.0007V12.5007Z" fill="#4A4A4A"/>
</svg>
