<svg width="24" height="24" viewBox="0 0 24 24" fill="none" xmlns="http://www.w3.org/2000/svg">
<path fill-rule="evenodd" clip-rule="evenodd" d="M18.4671 13.1283C18.6327 12.6499 19.1548 12.3964 19.6332 12.562C20.6669 12.9198 21.5227 13.7047 22.1082 14.7174C22.694 15.7306 22.9993 16.9495 23 18.1839V20.6424C23 21.1486 22.5896 21.559 22.0834 21.559C21.5771 21.559 21.1667 21.1486 21.1667 20.6424V18.1849C21.1661 17.241 20.9306 16.3434 20.521 15.635C20.1111 14.926 19.573 14.4812 19.0335 14.2944C18.5551 14.1288 18.3015 13.6067 18.4671 13.1283Z" fill="#4A4A4A"/>
<path fill-rule="evenodd" clip-rule="evenodd" d="M14.9212 2.66124C14.9398 2.15532 15.365 1.76026 15.8709 1.77884C16.9141 1.81715 17.915 2.20159 18.7156 2.87155C19.5162 3.54151 20.0711 4.45888 20.2927 5.47904C20.5144 6.49919 20.3902 7.5641 19.9398 8.50588C19.4893 9.44767 18.7383 10.2127 17.805 10.6805C17.3524 10.9073 16.8016 10.7243 16.5747 10.2717C16.3479 9.81914 16.5309 9.26835 16.9835 9.04151C17.5529 8.75615 18.0111 8.2894 18.2859 7.71486C18.5607 7.14031 18.6364 6.49065 18.5012 5.86829C18.366 5.24593 18.0275 4.68628 17.539 4.27756C17.0506 3.86884 16.44 3.63431 15.8036 3.61093C15.2977 3.59235 14.9026 3.16716 14.9212 2.66124Z" fill="#4A4A4A"/>
<path fill-rule="evenodd" clip-rule="evenodd" d="M2.38 15.7781C3.27447 14.796 4.507 14.2258 5.81249 14.2258H13.6042C14.9096 14.2258 16.1422 14.796 17.0366 15.7781C17.9285 16.7575 18.4166 18.0688 18.4166 19.4202V21.5591C18.4166 22.0654 18.0062 22.4758 17.5 22.4758C16.9937 22.4758 16.5833 22.0654 16.5833 21.5591V19.4202C16.5833 18.5026 16.2505 17.6378 15.6812 17.0126C15.1144 16.3903 14.3651 16.0591 13.6042 16.0591H5.81249C5.05151 16.0591 4.3022 16.3903 3.73546 17.0126C3.16611 17.6378 2.83333 18.5026 2.83333 19.4202V21.5591C2.83333 22.0654 2.42293 22.4758 1.91667 22.4758C1.41041 22.4758 1 22.0654 1 21.5591V19.4202C1 18.0688 1.48813 16.7575 2.38 15.7781Z" fill="#4A4A4A"/>
<path fill-rule="evenodd" clip-rule="evenodd" d="M9.70835 4.14246C7.93644 4.14246 6.50002 5.57888 6.50002 7.35079C6.50002 9.1227 7.93644 10.5591 9.70835 10.5591C11.4803 10.5591 12.9167 9.1227 12.9167 7.35079C12.9167 5.57888 11.4803 4.14246 9.70835 4.14246ZM4.66669 7.35079C4.66669 4.56636 6.92392 2.30913 9.70835 2.30913C12.4928 2.30913 14.75 4.56636 14.75 7.35079C14.75 10.1352 12.4928 12.3924 9.70835 12.3924C6.92392 12.3924 4.66669 10.1352 4.66669 7.35079Z" fill="#4A4A4A"/>
</svg>
