<svg width="24" height="24" viewBox="0 0 24 24" fill="none" xmlns="http://www.w3.org/2000/svg">
<path fill-rule="evenodd" clip-rule="evenodd" d="M3 4.22225C3 3.54722 3.54722 3 4.22225 3H8.11119C8.66348 3 9.11119 2.55228 9.11119 2C9.11119 1.44772 8.66348 1 8.11119 1H4.22225C2.44265 1 1 2.44265 1 4.22225V7.11119C1 7.66348 1.44772 8.11119 2 8.11119C2.55228 8.11119 3 7.66348 3 7.11119V4.22225ZM15.8891 1C15.3368 1 14.8891 1.44772 14.8891 2C14.8891 2.55228 15.3368 3 15.8891 3H19.778C20.453 3 21.0003 3.54722 21.0003 4.22225V7.11119C21.0003 7.66348 21.448 8.11119 22.0003 8.11119C22.5525 8.11119 23.0003 7.66348 23.0003 7.11119V4.22225C23.0003 2.44265 21.5576 1 19.778 1H15.8891ZM3 16.8891C3 16.3368 2.55228 15.8891 2 15.8891C1.44772 15.8891 1 16.3368 1 16.8891V19.778C1 21.5576 2.44265 23.0003 4.22225 23.0003H8.11119C8.66348 23.0003 9.11119 22.5525 9.11119 22.0003C9.11119 21.448 8.66348 21.0003 8.11119 21.0003H4.22225C3.54722 21.0003 3 20.453 3 19.778V16.8891ZM23.0003 16.8891C23.0003 16.3368 22.5525 15.8891 22.0003 15.8891C21.448 15.8891 21.0003 16.3368 21.0003 16.8891V19.778C21.0003 20.453 20.453 21.0003 19.778 21.0003H15.8891C15.3368 21.0003 14.8891 21.448 14.8891 22.0003C14.8891 22.5525 15.3368 23.0003 15.8891 23.0003H19.778C21.5576 23.0003 23.0003 21.5576 23.0003 19.778V16.8891ZM6 11C5.44772 11 5 11.4477 5 12C5 12.5523 5.44772 13 6 13H8C8.04201 13 8.08342 12.9974 8.12407 12.9924C8.48445 14.4042 9.59585 15.5155 11.0076 15.8759C11.0026 15.9166 11 15.958 11 16V18C11 18.5523 11.4477 19 12 19C12.5523 19 13 18.5523 13 18V16C13 15.958 12.9974 15.9166 12.9924 15.8759C14.4042 15.5155 15.5155 14.4042 15.8759 12.9924C15.9166 12.9974 15.958 13 16 13H18C18.5523 13 19 12.5523 19 12C19 11.4477 18.5523 11 18 11H16C15.958 11 15.9166 11.0026 15.8759 11.0076C15.5155 9.59585 14.4042 8.48445 12.9924 8.12407C12.9974 8.08342 13 8.04201 13 8V6C13 5.44772 12.5523 5 12 5C11.4477 5 11 5.44771 11 6V8C11 8.04201 11.0026 8.08342 11.0076 8.12407C9.59585 8.48445 8.48445 9.59585 8.12407 11.0076C8.08342 11.0026 8.04201 11 8 11H6ZM14 12C14 13.1046 13.1046 14 12 14C10.8954 14 10 13.1046 10 12C10 10.8954 10.8954 10 12 10C13.1046 10 14 10.8954 14 12Z" fill="#4A4A4A"/>
</svg>
