<svg width="24" height="24" viewBox="0 0 24 24" fill="none" xmlns="http://www.w3.org/2000/svg">
<path d="M11.9988 2C16.5829 2.00024 19.9996 6.04574 19.9988 10.6416C19.9988 11.2081 20.0832 11.5677 20.2048 11.8652C20.3384 12.1921 20.529 12.4831 20.8376 12.957C21.3113 13.6844 21.8079 14.5581 21.9616 15.627C22.2151 17.3902 21.1979 18.6354 20.0368 19.2949C19.603 19.5413 19.142 19.6123 18.7517 19.6123H16.8562C16.1626 21.5968 14.2384 23 11.9997 23C9.7626 22.9999 7.83611 21.5976 7.14328 19.6123H5.24484C4.85734 19.6123 4.38893 19.5433 3.94992 19.2861C2.79358 18.6082 1.79352 17.299 2.03586 15.626C2.19445 14.5318 2.69205 13.6795 3.16086 12.958C3.44852 12.5153 3.63847 12.2252 3.77609 11.8779C3.90474 11.5532 3.99971 11.1413 3.99973 10.5C3.99973 6.03411 7.42532 2.00014 11.9988 2ZM9.36008 19.6123C9.91176 20.4393 10.88 20.9999 11.9997 21C13.1197 21 14.0867 20.4394 14.6384 19.6123H9.36008ZM11.9988 4C8.69456 4.00014 5.99973 6.96649 5.99973 10.5C5.9997 11.3584 5.86936 12.0251 5.63547 12.6152C5.41042 13.183 5.10018 13.6453 4.83859 14.0479C4.40173 14.7201 4.10776 15.2685 4.01438 15.9131C3.92302 16.5443 4.27433 17.1582 4.96066 17.5605C4.9969 17.5818 5.08159 17.6123 5.24484 17.6123H18.7517C18.9123 17.6123 19.0041 17.5824 19.0495 17.5566C19.7342 17.1677 20.0837 16.6191 19.9821 15.9121C19.8925 15.2884 19.5957 14.7151 19.1618 14.0488C18.884 13.6221 18.5734 13.1608 18.3532 12.6221C18.1211 12.0541 17.9988 11.4329 17.9988 10.6416C17.9996 6.95423 15.2919 4.00025 11.9988 4Z" fill="#4A4A4A"/>
</svg>
