<svg width="24" height="24" viewBox="0 0 24 24" fill="none" xmlns="http://www.w3.org/2000/svg">
<path fill-rule="evenodd" clip-rule="evenodd" d="M19.8866 8.56385C17.9819 3.94757 12.7124 1.7493 8.12094 3.64397C6.813 4.1837 5.7016 4.99633 4.8239 5.98963L6.37361 6.10187C6.92443 6.14176 7.33862 6.62065 7.29872 7.17149C7.25883 7.72233 6.77997 8.13654 6.22916 8.09664L2.88397 7.85437C2.40404 7.81961 2.01692 7.44794 1.96263 6.96979L1.55201 3.35298C1.48971 2.80422 1.88404 2.30885 2.43277 2.24655C2.9815 2.18424 3.47684 2.57859 3.53915 3.12735L3.67133 4.2916C4.68632 3.24545 5.92686 2.38579 7.3581 1.79519C12.9768 -0.5234 19.4118 2.16991 21.7353 7.80097C23.1293 11.1793 22.7276 14.8508 20.9732 17.7461C20.687 18.2185 20.0721 18.3694 19.5998 18.0831C19.1275 17.7969 18.9766 17.182 19.2628 16.7097C20.701 14.3362 21.0285 11.3313 19.8866 8.56385ZM7.06024 22.0495C6.55702 21.822 6.3335 21.2296 6.56101 20.7263C6.78852 20.2231 7.38089 19.9995 7.88411 20.2271C8.44026 20.4785 9.01863 20.67 9.60892 20.8016C10.1479 20.9218 10.4875 21.4562 10.3673 21.9953C10.2471 22.5343 9.71272 22.8739 9.1737 22.7537C8.45216 22.5928 7.74338 22.3583 7.06024 22.0495ZM17.73 18.6025C18.1327 18.2247 18.7655 18.2448 19.1434 18.6476C19.5213 19.0503 19.5011 19.6832 19.0983 20.0611C18.4644 20.6559 17.7523 21.1815 16.9696 21.6205C16.488 21.8907 15.8785 21.7192 15.6083 21.2375C15.3381 20.7558 15.5096 20.1463 15.9913 19.8762C16.6311 19.5173 17.2125 19.0881 17.73 18.6025ZM12.1059 23.0066C11.5543 23.0324 11.0862 22.606 11.0604 22.0543C11.0347 21.5027 11.461 21.0345 12.0126 21.0088C12.5954 20.9815 13.1753 20.8986 13.7426 20.7603C14.2792 20.6296 14.8201 20.9586 14.9509 21.4952C15.0816 22.0318 14.7526 22.5728 14.216 22.7035C13.5232 22.8723 12.8161 22.9734 12.1059 23.0066ZM13.5001 6.99999C13.5001 6.4477 13.0524 5.99999 12.5001 5.99999C11.9478 5.99999 11.5001 6.4477 11.5001 6.99999V13.1169L8.35717 15.7545C7.93413 16.1095 7.879 16.7403 8.23403 17.1633C8.58907 17.5864 9.21983 17.6415 9.64288 17.2865L13.1429 14.3491C13.3693 14.1591 13.5001 13.8787 13.5001 13.5831V6.99999Z" fill="#4A4A4A"/>
</svg>
