<svg width="24" height="24" viewBox="0 0 24 24" fill="none" xmlns="http://www.w3.org/2000/svg">
<path d="M12.6104 21.2615L13.1947 19.9183C14.2209 17.5416 16.1013 15.6356 18.4649 14.5764L20.2699 13.7742C20.4879 13.6734 20.6725 13.5124 20.8019 13.3101C20.9313 13.1078 21 12.8728 21 12.6328C21 12.3927 20.9313 12.1577 20.8019 11.9554C20.6725 11.7531 20.4879 11.5921 20.2699 11.4913L18.5646 10.7319C16.1416 9.64244 14.229 7.66596 13.2208 5.20958L12.62 3.76197C12.5317 3.53736 12.3778 3.34453 12.1782 3.20861C11.9787 3.0727 11.7428 3 11.5013 3C11.2598 3 11.0239 3.0727 10.8244 3.20861C10.6249 3.34453 10.4709 3.53736 10.3827 3.76197L9.7818 5.21196C8.77256 7.66787 6.85911 9.6435 4.43564 10.7319L2.73275 11.4889C2.51405 11.5894 2.32879 11.7505 2.19892 11.953C2.06905 12.1555 2.00003 12.391 2.00003 12.6316C2.00003 12.8721 2.06905 13.1076 2.19892 13.3101C2.32879 13.5126 2.51405 13.6737 2.73275 13.7742L4.53539 14.5787C6.89944 15.637 8.78069 17.5421 9.80793 19.9183L10.3922 21.2615C10.4835 21.4802 10.6375 21.667 10.8349 21.7985C11.0323 21.9299 11.2641 22 11.5013 22C11.7385 22 11.9704 21.9299 12.1677 21.7985C12.3651 21.667 12.5191 21.4802 12.6104 21.2615Z" fill="#4A4A4A"/>
<path d="M19.3507 7.76678L19.5352 7.34262C19.8592 6.5921 20.4531 5.9902 21.1995 5.65569L21.7695 5.40239C21.8383 5.37055 21.8966 5.3197 21.9375 5.25582C21.9783 5.19195 22 5.11773 22 5.04192C22 4.96612 21.9783 4.89189 21.9375 4.82802C21.8966 4.76415 21.8383 4.71329 21.7695 4.68146L21.231 4.44164C20.4658 4.09761 19.8618 3.47346 19.5434 2.69776L19.3537 2.24062C19.3258 2.16969 19.2772 2.1088 19.2142 2.06588C19.1512 2.02296 19.0767 2 19.0004 2C18.9242 2 18.8497 2.02296 18.7867 2.06588C18.7237 2.1088 18.6751 2.16969 18.6472 2.24062L18.4574 2.69851C18.1387 3.47406 17.5345 4.09795 16.7692 4.44164L16.2314 4.68071C16.1624 4.71245 16.1038 4.76331 16.0628 4.82727C16.0218 4.89122 16 4.96559 16 5.04155C16 5.1175 16.0218 5.19187 16.0628 5.25583C16.1038 5.31978 16.1624 5.37065 16.2314 5.40239L16.8007 5.65644C17.5472 5.99062 18.1413 6.59225 18.4657 7.34262L18.6502 7.76678C18.679 7.83585 18.7277 7.89485 18.79 7.93635C18.8523 7.97785 18.9255 8 19.0004 8C19.0753 8 19.1486 7.97785 19.2109 7.93635C19.2732 7.89485 19.3219 7.83585 19.3507 7.76678Z" fill="#4A4A4A"/>
</svg>
