<svg width="24" height="24" viewBox="0 0 24 24" fill="none" xmlns="http://www.w3.org/2000/svg">
<g clip-path="url(#clip0_7588_2187)">
<path fill-rule="evenodd" clip-rule="evenodd" d="M6.8202 11.679C6.77324 11.666 6.52238 11.6338 5.91392 11.9104C5.36288 12.1608 4.71027 12.8036 4.07645 13.8088C3.4597 14.7869 2.93253 15.9944 2.57961 17.2C2.22395 18.415 2.06564 19.5582 2.13013 20.4151C2.19935 21.3347 2.4795 21.5685 2.60603 21.6191C2.69861 21.6562 3.04597 21.6901 3.74793 21.4531C4.39612 21.2343 5.17458 20.843 5.99068 20.3212C6.24561 20.1582 6.5003 19.985 6.75205 19.8037C6.75175 19.7975 6.75146 19.7913 6.75117 19.7851C6.69677 18.6098 6.82006 17.2364 6.93255 15.9832C6.95742 15.7062 6.98176 15.435 7.00354 15.1731C7.06563 14.4265 7.10893 13.7465 7.10173 13.1593C7.09435 12.5571 7.03344 12.139 6.93725 11.879C6.89224 11.7574 6.85201 11.7057 6.83661 11.6893C6.82914 11.6814 6.82886 11.6813 6.82227 11.6795C6.82164 11.6793 6.82095 11.6792 6.8202 11.679ZM8.7713 18.1012C8.80574 17.4993 8.86213 16.8671 8.91969 16.2218C8.94575 15.9297 8.97204 15.6348 8.99666 15.3389C9.05956 14.5825 9.11001 13.8228 9.10158 13.1348C9.09334 12.462 9.02925 11.7695 8.81295 11.185C8.58624 10.5723 8.14401 9.96936 7.35188 9.75092C6.63321 9.55274 5.85283 9.74121 5.08631 10.0896C4.00801 10.5798 3.09594 11.614 2.3847 12.742C1.65638 13.897 1.05811 15.2787 0.660164 16.6381C0.264963 17.9882 0.0469975 19.3858 0.135768 20.5652C0.219811 21.6818 0.622463 22.9798 1.86326 23.4761C2.65339 23.7921 3.59306 23.6163 4.38761 23.3481C5.23593 23.0617 6.16347 22.5846 7.06803 22.0062C7.10162 21.9847 7.13524 21.9631 7.16888 21.9413C7.43516 22.5699 7.88001 23.1458 8.59574 23.4622C9.64183 23.9247 10.5452 23.9314 11.3531 23.7048C11.9152 23.5472 12.4573 23.2561 12.8641 23.0377C12.9738 22.9788 13.0737 22.9252 13.1615 22.8809C13.6373 22.6407 13.9644 22.5394 14.315 22.5753C14.6709 22.6118 15.2243 22.8108 16.0707 23.5619C16.4838 23.9284 17.1158 23.8907 17.4824 23.4776C17.849 23.0645 17.8112 22.4325 17.3981 22.0659C16.3773 21.1601 15.445 20.6807 14.519 20.5858C13.5877 20.4903 12.8366 20.8045 12.2603 21.0954C12.0777 21.1875 11.9192 21.2723 11.775 21.3493C11.4148 21.5417 11.1443 21.6862 10.8129 21.7792C10.4431 21.8829 10.0171 21.9039 9.40448 21.633C9.2691 21.5732 9.12571 21.4481 8.99803 21.1311C8.94797 21.0067 8.90476 20.8628 8.86873 20.6989C10.032 19.7483 11.1016 18.6505 11.832 17.5549C12.1384 17.0953 12.0142 16.4745 11.5547 16.1681C11.0951 15.8618 10.4743 15.9859 10.1679 16.4455C9.80528 16.9894 9.32405 17.5532 8.7713 18.1012Z" fill="#4A4A4A"/>
<path fill-rule="evenodd" clip-rule="evenodd" d="M10.201 2.11427C10.507 2.16284 10.7812 2.33099 10.9632 2.58171L21.4159 16.9791L21.6145 19.2411L19.5252 18.3518L9.07252 3.9544C8.98238 3.83025 8.91758 3.68957 8.88182 3.54038C8.84606 3.39119 8.84003 3.23642 8.86409 3.0849C8.88814 2.93339 8.9418 2.78809 9.022 2.65731C9.10221 2.52653 9.20739 2.41283 9.33153 2.32269C9.45568 2.23256 9.59636 2.16776 9.74555 2.132C9.89474 2.09624 10.0495 2.09021 10.201 2.11427ZM12.5817 1.40671C12.088 0.726741 11.3445 0.270734 10.5146 0.138998C10.1037 0.0737688 9.68394 0.090114 9.27934 0.1871C8.87474 0.284087 8.49321 0.459815 8.15653 0.704251C7.81984 0.948687 7.5346 1.25704 7.31709 1.61172C7.09957 1.96639 6.95405 2.36043 6.88882 2.77135C6.82359 3.18226 6.83993 3.602 6.93692 4.0066C7.03391 4.41119 7.20964 4.79273 7.45407 5.12941L18.0695 19.751C18.176 19.8976 18.3203 20.0126 18.4871 20.0836L22.3647 21.734C22.6879 21.8716 23.0596 21.8295 23.3439 21.6231C23.6281 21.4168 23.7832 21.0764 23.7525 20.7265L23.384 16.5283C23.3682 16.3478 23.3036 16.1749 23.1971 16.0282L12.5817 1.40671Z" fill="#4A4A4A"/>
</g>
<defs>
<clipPath id="clip0_7588_2187">
<rect width="24" height="24" fill="white"/>
</clipPath>
</defs>
</svg>
