<svg width="24" height="24" viewBox="0 0 24 24" fill="none" xmlns="http://www.w3.org/2000/svg">
<path d="M10 17C11.3059 17 12.4141 17.8353 12.8262 19H21.9004C22.5077 19.0002 23 19.4478 23 20C23 20.5522 22.5077 20.9998 21.9004 21H12.8262C12.4141 22.1647 11.3059 23 10 23C8.69415 23 7.58594 22.1647 7.17383 21H2.09961C1.49228 20.9998 1 20.5522 1 20C1 19.4478 1.49228 19.0002 2.09961 19H7.17383C7.58594 17.8353 8.69415 17 10 17ZM18 9C19.3059 9 20.4141 9.83532 20.8262 11H21.9004C22.5077 11.0002 23 11.4478 23 12C23 12.5522 22.5077 12.9998 21.9004 13H20.8262C20.4141 14.1647 19.3059 15 18 15C16.6941 15 15.5859 14.1647 15.1738 13H2.09961C1.49228 12.9998 1 12.5522 1 12C1 11.4478 1.49228 11.0002 2.09961 11H15.1738C15.5859 9.83532 16.6941 9 18 9ZM7 1C8.30585 1 9.41406 1.83532 9.82617 3H21.9004C22.5077 3.00019 23 3.44783 23 4C23 4.55217 22.5077 4.99981 21.9004 5H9.82617C9.41406 6.16468 8.30585 7 7 7C5.69415 7 4.58594 6.16468 4.17383 5H2.09961C1.49228 4.99981 1 4.55217 1 4C1 3.44783 1.49228 3.00019 2.09961 3H4.17383C4.58594 1.83532 5.69415 1 7 1Z" fill="#4A4A4A"/>
</svg>
