<svg width="24" height="24" viewBox="0 0 24 24" fill="none" xmlns="http://www.w3.org/2000/svg">
<path fill-rule="evenodd" clip-rule="evenodd" d="M11.6482 12.5635C12.0062 12.2056 12.0062 11.6252 11.6482 11.2672L7.71303 7.33203L11.6482 3.39688C12.0062 3.0389 12.0062 2.4585 11.6482 2.10052C11.2902 1.74254 10.7098 1.74254 10.3518 2.10052L5.76849 6.68385C5.4105 7.04183 5.4105 7.62223 5.76849 7.98021L10.3518 12.5635C10.7098 12.9215 11.2902 12.9215 11.6482 12.5635Z" fill="#4A4A4A"/>
<path fill-rule="evenodd" clip-rule="evenodd" d="M7.52318 12.5635C7.88116 12.2056 7.88116 11.6252 7.52318 11.2672L3.58803 7.33203L7.52318 3.39688C7.88116 3.0389 7.88116 2.4585 7.52318 2.10052C7.1652 1.74254 6.5848 1.74254 6.22682 2.10052L1.64349 6.68385C1.2855 7.04183 1.2855 7.62223 1.64349 7.98021L6.22682 12.5635C6.5848 12.9215 7.1652 12.9215 7.52318 12.5635Z" fill="#4A4A4A"/>
<path fill-rule="evenodd" clip-rule="evenodd" d="M19.25 18.332C19.7563 18.332 20.1667 17.9216 20.1667 17.4154V10.9987C20.1667 9.78312 19.6838 8.61733 18.8242 7.75779C17.9647 6.89825 16.7989 6.41536 15.5833 6.41536L6.41667 6.41536C5.91041 6.41536 5.5 6.82577 5.5 7.33203C5.5 7.83829 5.91041 8.2487 6.41667 8.2487L15.5833 8.2487C16.3127 8.2487 17.0121 8.53843 17.5279 9.05415C18.0436 9.56988 18.3333 10.2694 18.3333 10.9987V17.4154C18.3333 17.9216 18.7437 18.332 19.25 18.332Z" fill="#4A4A4A"/>
</svg>
