<svg width="24" height="24" viewBox="0 0 24 24" fill="none" xmlns="http://www.w3.org/2000/svg">
<g clip-path="url(#clip0_1127_23079)">
<path d="M0 10.0748C0 4.51065 4.51065 0 10.0748 0C14.6475 0 18.5063 3.04557 19.7382 7.21675C19.8946 7.74642 19.5921 8.30261 19.0624 8.45905C18.5328 8.61548 17.9766 8.31292 17.8201 7.78325C16.8324 4.43889 13.7371 2 10.0748 2C5.61522 2 2 5.61522 2 10.0748C2 13.7371 4.43889 16.8324 7.78325 17.8201C8.31292 17.9766 8.61548 18.5328 8.45905 19.0624C8.30261 19.5921 7.74642 19.8946 7.21675 19.7382C3.04557 18.5063 0 14.6475 0 10.0748Z" fill="#4A4A4A"/>
<path d="M10.0746 4.10797C10.6269 4.10797 11.0746 4.55569 11.0746 5.10797V10.5389C11.0746 10.8345 10.9439 11.1149 10.7175 11.3049L7.83015 13.7282C7.40711 14.0833 6.77635 14.0281 6.4213 13.6051C6.06626 13.1821 6.12137 12.5513 6.54441 12.1963L9.07464 10.0727V5.10797C9.07464 4.55569 9.52235 4.10797 10.0746 4.10797Z" fill="#4A4A4A"/>
<path d="M17 13.3C17.5523 13.3 18 13.7478 18 14.3V16.5C18 17.0523 17.5523 17.5 17 17.5C16.4477 17.5 16 17.0523 16 16.5V14.3C16 13.7478 16.4477 13.3 17 13.3Z" fill="#4A4A4A"/>
<path d="M17 18.3999C16.4477 18.3999 16 18.8476 16 19.3999C16 19.9522 16.4477 20.3999 17 20.3999H17.006C17.5583 20.3999 18.006 19.9522 18.006 19.3999C18.006 18.8476 17.5583 18.3999 17.006 18.3999H17Z" fill="#4A4A4A"/>
<path fill-rule="evenodd" clip-rule="evenodd" d="M17 10C13.134 10 10 13.134 10 17C10 20.866 13.134 24 17 24C20.866 24 24 20.866 24 17C24 13.134 20.866 10 17 10ZM12 17C12 14.2386 14.2386 12 17 12C19.7614 12 22 14.2386 22 17C22 19.7615 19.7614 22 17 22C14.2386 22 12 19.7615 12 17Z" fill="#4A4A4A"/>
</g>
<defs>
<clipPath id="clip0_1127_23079">
<rect width="24" height="24" fill="white"/>
</clipPath>
</defs>
</svg>
